<svg xmlns="http://www.w3.org/2000/svg" width="16.747" height="19.761" viewBox="0 0 16.747 19.761">
  <g id="commerce-and-shopping" transform="translate(-15.359)">
    <g id="Сгруппировать_2" data-name="Сгруппировать 2" transform="translate(21.367)">
      <g id="Сгруппировать_1" data-name="Сгруппировать 1">
        <path id="Контур_1" data-name="Контур 1" d="M81.776,2.442a2.847,2.847,0,0,0-5.118-1.273.335.335,0,1,0,.541.4,2.178,2.178,0,0,1,3.914.972.335.335,0,0,0,.331.288.359.359,0,0,0,.048,0A.335.335,0,0,0,81.776,2.442Z" transform="translate(-76.593)" fill="#fff"/>
      </g>
    </g>
    <g id="Сгруппировать_4" data-name="Сгруппировать 4" transform="translate(16.028 4.354)">
      <g id="Сгруппировать_3" data-name="Сгруппировать 3" transform="translate(0)">
        <path id="Контур_2" data-name="Контур 2" d="M37.544,46.209l-1-1.675a.335.335,0,0,0-.287-.163h-.963a.335.335,0,0,0,0,.67h.773l.6,1H23.111l.6-1h.355a.335.335,0,1,0,0-.67h-.544a.335.335,0,0,0-.287.163l-1,1.675a.335.335,0,0,0,.287.507H37.257a.335.335,0,0,0,.287-.507Z" transform="translate(-22.185 -44.372)" fill="#fff"/>
      </g>
    </g>
    <g id="Сгруппировать_6" data-name="Сгруппировать 6" transform="translate(24.188 1.877)">
      <g id="Сгруппировать_5" data-name="Сгруппировать 5">
        <path id="Контур_3" data-name="Контур 3" d="M110.873,20.352a.334.334,0,0,0-.208-.15L106.1,19.135a.335.335,0,0,0-.4.25l-.344,1.472a.335.335,0,0,0,.652.152l.268-1.146,3.914.915-.615,2.629a.335.335,0,0,0,.25.4.339.339,0,0,0,.077.009.334.334,0,0,0,.326-.259l.691-2.955A.334.334,0,0,0,110.873,20.352Z" transform="translate(-105.343 -19.126)" fill="#fff"/>
      </g>
    </g>
    <g id="Сгруппировать_8" data-name="Сгруппировать 8" transform="translate(17.334 1.018)">
      <g id="Сгруппировать_7" data-name="Сгруппировать 7" transform="translate(0)">
        <path id="Контур_4" data-name="Контур 4" d="M42.069,13.25l-.305-2.581a.335.335,0,0,0-.372-.293l-5.6.662a.335.335,0,0,0-.293.372l.509,4.305a.335.335,0,0,0,.332.3l.04,0a.335.335,0,0,0,.293-.372l-.47-3.973,4.937-.583.266,2.249a.335.335,0,0,0,.665-.078Z" transform="translate(-35.494 -10.374)" fill="#fff"/>
      </g>
    </g>
    <g id="Сгруппировать_10" data-name="Сгруппировать 10" transform="translate(19.837 3.215)">
      <g id="Сгруппировать_9" data-name="Сгруппировать 9">
        <path id="Контур_5" data-name="Контур 5" d="M67.718,35.79l-.665-2.765a.335.335,0,0,0-.4-.247l-5.4,1.3a.335.335,0,0,0-.247.4l.332,1.382a.335.335,0,1,0,.651-.157l-.254-1.056,4.744-1.141.586,2.439a.335.335,0,0,0,.651-.157Z" transform="translate(-60.997 -32.769)" fill="#fff"/>
      </g>
    </g>
    <g id="Сгруппировать_12" data-name="Сгруппировать 12" transform="translate(15.359 6.029)">
      <g id="Сгруппировать_11" data-name="Сгруппировать 11">
        <path id="Контур_6" data-name="Контур 6" d="M31.435,61.759a.335.335,0,0,0-.335-.318H16.363a.335.335,0,0,0-.335.318l-.67,13.062a.335.335,0,0,0,.335.352H31.77a.335.335,0,0,0,.335-.352ZM16.046,74.5l.636-12.392h14.1L31.418,74.5Z" transform="translate(-15.359 -61.441)" fill="#fff"/>
      </g>
    </g>
    <g id="Сгруппировать_14" data-name="Сгруппировать 14" transform="translate(25.239 7.368)">
      <g id="Сгруппировать_13" data-name="Сгруппировать 13" transform="translate(0)">
        <path id="Контур_7" data-name="Контур 7" d="M117.057,75.093a1,1,0,1,0,1,1A1.006,1.006,0,0,0,117.057,75.093Zm0,1.34a.335.335,0,1,1,.335-.335A.335.335,0,0,1,117.057,76.433Z" transform="translate(-116.052 -75.093)" fill="#fff"/>
      </g>
    </g>
    <g id="Сгруппировать_16" data-name="Сгруппировать 16" transform="translate(20.215 7.368)">
      <g id="Сгруппировать_15" data-name="Сгруппировать 15" transform="translate(0)">
        <path id="Контур_8" data-name="Контур 8" d="M65.857,75.093a1,1,0,1,0,1,1A1.006,1.006,0,0,0,65.857,75.093Zm0,1.34a.335.335,0,1,1,.335-.335A.335.335,0,0,1,65.857,76.433Z" transform="translate(-64.852 -75.093)" fill="#fff"/>
      </g>
    </g>
    <g id="Сгруппировать_18" data-name="Сгруппировать 18" transform="translate(20.885 8.373)">
      <g id="Сгруппировать_17" data-name="Сгруппировать 17" transform="translate(0)">
        <path id="Контур_9" data-name="Контур 9" d="M77.038,85.333h-.026a.335.335,0,0,0-.335.335.331.331,0,0,0,.026.129V87.51a2.177,2.177,0,0,1-4.354,0V85.668a.335.335,0,0,0-.67,0V87.51a2.847,2.847,0,1,0,5.694,0V85.668A.335.335,0,0,0,77.038,85.333Z" transform="translate(-71.679 -85.333)" fill="#fff"/>
      </g>
    </g>
  </g>
</svg>
