<svg xmlns="http://www.w3.org/2000/svg" xmlns:xlink="http://www.w3.org/1999/xlink" width="345.12" height="263.752" viewBox="0 0 345.12 263.752">
  <defs>
    <clipPath id="clip-path">
      <circle id="Эллипс_73" data-name="Эллипс 73" cx="17.948" cy="17.948" r="17.948"/>
    </clipPath>
  </defs>
  <g id="Сгруппировать_3340" data-name="Сгруппировать 3340" transform="translate(0.002 -0.026)">
    <g id="Сгруппировать_3257" data-name="Сгруппировать 3257" transform="translate(15.8 0.026)">
      <path id="Контур_7108" data-name="Контур 7108" d="M330.109,94.551c4.835,8.788,11.861,17.074,12.472,26.983.976,15.916-14.54,27.908-20.882,42.659-7.791,18.1-1.26,39.427-8.147,57.862-4.995,13.353-17.249,24.02-31.65,27.551-10.79,2.643-22.142,1.449-33.289,1.558-31.636.306-63.148,11.249-94.347,6.284-15.407-2.454-29.976-8.708-45.455-10.718-18.559-2.41-40.191.5-53.457-12.108C36.823,217,50.577,184.595,36.67,163.451c-4.478-6.808-11.693-12.137-14.111-19.833-2.825-9,1.755-18.588,7.441-26.255s12.72-14.729,15.8-23.656c2.8-8.1,1.092-16.906-2.352-24.777-5.271-12.065,9.4-39.718,38.487-37.643,13.339.954,19.338-14.5,33.966-18.778,16.754-4.9,37.781-.961,50.122,3.138,12.538,4.165,28.046,6.356,35.233-4.289,10.15-15.035,40.4-17.387,53.989,7.026,4.966,8.919,9.378,15.858,19.943,15.174C332.439,29.859,322.922,81.489,330.109,94.551ZM174.091,12.05c0,2.046,0,5.563,9.028,4.987,2.767-.175,5.024-1.66,5.024-3.706s-2.25-3.706-5.024-3.706S174.091,8.781,174.091,12.05ZM85.169,21.988a1.84,1.84,0,0,0-.6.714,5.32,5.32,0,0,1-2.628,1.886,4.833,4.833,0,0,0-1.7.9,1.841,1.841,0,0,0,.175,2.65,3.6,3.6,0,0,0,2.4.524,15.148,15.148,0,0,0,8.628-3.225C94.619,22.906,86.916,21.042,85.169,21.988ZM76.6,26.706c-1.056-.692-2.425-.291-3.473.248a.951.951,0,0,0-.532.517c-.138.5.5.852,1,1.012a4.073,4.073,0,0,0,2.468.226C76.861,28.447,77.662,27.4,76.6,26.706ZM36.677,91.988c-.779-2.388-2.628-3.575-5.432-2.213a10.231,10.231,0,0,0-3.83,3.83c-1.609,2.439-2.992,5.235-2.658,8.1A7.619,7.619,0,0,0,28,106.994a4.315,4.315,0,0,0,2.5.874,4.781,4.781,0,0,0,2.658-1.165,26.424,26.424,0,0,0,4.6-5.06,6.732,6.732,0,0,0,1.595-3.087C39.648,96.1,37.4,94.179,36.677,91.988Zm292.674,73.523a3.87,3.87,0,0,0-1.857,1.289,3.772,3.772,0,0,0-.473,1.667,33.38,33.38,0,0,0-.2,3.619,4.772,4.772,0,0,0,1.158,3.691c1.369,1.216,3.546.786,5.337.284a5.2,5.2,0,0,0,2.738-1.4,4.366,4.366,0,0,0,.779-2.053c.437-2.417,1.762-6.072.291-7.325S331.922,164.463,329.351,165.511Zm-101.111,93.5a4.4,4.4,0,0,0-.932,1.15,2.545,2.545,0,0,0,1.3,3.364,5.373,5.373,0,0,0,2.075.248c6.021-.08,12.494-.3,17.307-3.757.59-.422,1.194-1.012,1.092-1.711-.124-.837-1.165-1.2-2.039-1.369C241.033,255.781,233.075,254.478,228.24,259.014Zm-114.3-9.291c-5.235-.706-13.564-1.7-13.564,2.534,0,1.6,7.39,3.138,8.613,3.429A98.38,98.38,0,0,1,120,259.312c6.859,2.534,12.349-.881,6.917-4.7A27.759,27.759,0,0,0,113.936,249.723Z" transform="translate(-21.701 -0.026)" fill="#c8eefb"/>
    </g>
    <g id="Сгруппировать_3339" data-name="Сгруппировать 3339" transform="translate(-0.002 47.767)">
      <g id="Сгруппировать_3273" data-name="Сгруппировать 3273" transform="translate(270.927 82.017)">
        <g id="Сгруппировать_3258" data-name="Сгруппировать 3258" transform="translate(7.558)">
          <path id="Контур_7109" data-name="Контур 7109" d="M384.125,198.052a93.62,93.62,0,0,0,23.7-5.832c.364-.153.582,2.33.582,2.33s1.7-3.313,2.286-3.59c6.24-2.942,11.963-7.048,15.035-12.72,0,0,1.514,34.818-43.249,42.55Z" transform="translate(-382.48 -178.24)" fill="#5084da"/>
        </g>
        <g id="Сгруппировать_3259" data-name="Сгруппировать 3259" transform="translate(3.131 59.529)">
          <path id="Контур_7110" data-name="Контур 7110" d="M397.355,260s14.773,7.827,43.657,9.189c0,0-19.651,17.933-64.612,11.759l1.478-20.423Z" transform="translate(-376.4 -260)" fill="#5084da"/>
        </g>
        <g id="Сгруппировать_3260" data-name="Сгруппировать 3260" transform="translate(3.422 26.464)">
          <path id="Контур_7111" data-name="Контур 7111" d="M376.8,227.775a88.228,88.228,0,0,1,17.489-7.936c.43-.146,1.347,2.4,1.347,2.4s1.478-3.32,2.257-3.553c12.931-3.874,30.624-6.4,49.678-1.019,0,0-5.774,8.046-17.591,16.848-.5.379-3.844.08-3.844.08s1.4,1.689.939,2.01a113.139,113.139,0,0,1-47.938,18.909Z" transform="translate(-376.8 -214.586)" fill="#5193f4"/>
        </g>
        <g id="Сгруппировать_3266" data-name="Сгруппировать 3266" transform="translate(0 29.539)" opacity="0.4">
          <g id="Сгруппировать_3261" data-name="Сгруппировать 3261">
            <path id="Контур_7112" data-name="Контур 7112" d="M446.293,218.81a164.475,164.475,0,0,1-17.394,9.633c-5.963,2.912-12.094,5.475-18.3,7.82-3.1,1.187-6.269,2.184-9.407,3.247l-4.769,1.427c-.794.233-1.587.481-2.388.706l-2.417.6a163.262,163.262,0,0,1-19.513,3.837l4.864-1,2.432-.5c.808-.182,1.609-.393,2.41-.582l4.827-1.15,4.784-1.325c3.2-.852,6.334-1.9,9.494-2.854,3.124-1.092,6.269-2.111,9.341-3.32,6.211-2.264,12.312-4.827,18.326-7.587q4.511-2.064,8.941-4.3Q441.976,221.267,446.293,218.81Z" transform="translate(-372.1 -218.81)" fill="#5084da"/>
          </g>
          <g id="Сгруппировать_3262" data-name="Сгруппировать 3262" transform="translate(33.791 3.706)">
            <path id="Контур_7113" data-name="Контур 7113" d="M418.51,238.862c1.23-1.15,2.432-2.323,3.626-3.495s2.352-2.366,3.473-3.6,2.2-2.49,3.24-3.786c1.019-1.311,1.988-2.665,2.912-4.085a21.853,21.853,0,0,1-2.3,4.521,33.315,33.315,0,0,1-3.145,4A35.4,35.4,0,0,1,418.51,238.862Z" transform="translate(-418.51 -223.9)" fill="#5084da"/>
          </g>
          <g id="Сгруппировать_3263" data-name="Сгруппировать 3263" transform="translate(15.902 9.72)">
            <path id="Контур_7114" data-name="Контур 7114" d="M393.94,246.474a31.128,31.128,0,0,0,3.728-2.905A30.064,30.064,0,0,0,400.9,240.2a27.476,27.476,0,0,0,2.679-3.823,41.6,41.6,0,0,0,2.141-4.216,17.95,17.95,0,0,1-1.478,4.572,18.99,18.99,0,0,1-2.6,4.077,19.521,19.521,0,0,1-3.5,3.342A16.038,16.038,0,0,1,393.94,246.474Z" transform="translate(-393.94 -232.16)" fill="#5084da"/>
          </g>
          <g id="Сгруппировать_3264" data-name="Сгруппировать 3264" transform="translate(33.791 17.664)">
            <path id="Контур_7115" data-name="Контур 7115" d="M418.51,244.075a61.231,61.231,0,0,0,6.844-.036c1.129-.058,2.25-.189,3.378-.357,1.129-.146,2.235-.408,3.386-.612a12.867,12.867,0,0,1-3.233,1.347,16.99,16.99,0,0,1-3.466.582,18.84,18.84,0,0,1-3.509-.1A13.26,13.26,0,0,1,418.51,244.075Z" transform="translate(-418.51 -243.07)" fill="#5084da"/>
          </g>
          <g id="Сгруппировать_3265" data-name="Сгруппировать 3265" transform="translate(16.258 24.064)">
            <path id="Контур_7116" data-name="Контур 7116" d="M394.43,251.86c1.391.167,2.767.3,4.143.444,1.376.124,2.745.24,4.114.3s2.738.058,4.106.022a40.1,40.1,0,0,0,4.121-.415,15,15,0,0,1-4.048,1.158,24.792,24.792,0,0,1-4.223.189A25.7,25.7,0,0,1,394.43,251.86Z" transform="translate(-394.43 -251.86)" fill="#5084da"/>
          </g>
        </g>
        <g id="Сгруппировать_3268" data-name="Сгруппировать 3268" transform="translate(12.502 9.036)" opacity="0.228">
          <g id="Сгруппировать_3267" data-name="Сгруппировать 3267">
            <path id="Контур_7117" data-name="Контур 7117" d="M422.974,190.65a25.843,25.843,0,0,1-5.679,8.679,37.869,37.869,0,0,1-8.228,6.429L406.759,207c-.764.422-1.587.721-2.381,1.078a42.469,42.469,0,0,1-4.907,1.777,24.624,24.624,0,0,1-2.519.663l-2.534.6c-1.718.269-3.429.517-5.148.735,1.682-.43,3.371-.772,5.038-1.194l2.476-.728c.823-.255,1.66-.451,2.454-.786,1.595-.633,3.24-1.136,4.769-1.908.772-.371,1.58-.663,2.323-1.085l2.25-1.23a43.88,43.88,0,0,0,8.191-6.116c.612-.6,1.23-1.187,1.784-1.842.284-.32.575-.633.852-.961l.794-1.012A23.881,23.881,0,0,0,422.974,190.65Z" transform="translate(-389.27 -190.65)" fill="#605aca" opacity="0.5"/>
          </g>
        </g>
        <g id="Сгруппировать_3272" data-name="Сгруппировать 3272" transform="translate(9.946 65.718)">
          <g id="Сгруппировать_3269" data-name="Сгруппировать 3269">
            <path id="Контур_7118" data-name="Контур 7118" d="M434.12,273.961c-2.024.386-4.07.626-6.123.866q-3.08.295-6.167.451a104.817,104.817,0,0,1-12.378-.175c-2.061-.175-4.114-.408-6.16-.743a55.446,55.446,0,0,1-6.08-1.223A42.05,42.05,0,0,1,385.76,268.5a44.277,44.277,0,0,0,5.708,2.293,55.552,55.552,0,0,0,5.919,1.616,86.31,86.31,0,0,0,12.145,1.718c4.077.357,8.184.437,12.283.4S430.021,274.318,434.12,273.961Z" transform="translate(-385.76 -268.5)" fill="#4ca1ff"/>
          </g>
          <g id="Сгруппировать_3270" data-name="Сгруппировать 3270" transform="translate(15.749 5.148)">
            <path id="Контур_7119" data-name="Контур 7119" d="M420.641,283.1a15.508,15.508,0,0,1-7.907-1.565,12.26,12.26,0,0,1-3.306-2.446,9.369,9.369,0,0,1-2.039-3.517,14.9,14.9,0,0,0,2.563,2.978,16.267,16.267,0,0,0,3.211,2.126,24.9,24.9,0,0,0,3.626,1.442A35.087,35.087,0,0,0,420.641,283.1Z" transform="translate(-407.39 -275.57)" fill="#4ca1ff"/>
          </g>
          <g id="Сгруппировать_3271" data-name="Сгруппировать 3271" transform="translate(6.931 3.094)">
            <path id="Контур_7120" data-name="Контур 7120" d="M406.58,282.973a15.443,15.443,0,0,1-7.383-3.24,12.112,12.112,0,0,1-2.694-3.109,9.257,9.257,0,0,1-1.223-3.874,15.139,15.139,0,0,0,1.857,3.458,16.366,16.366,0,0,0,2.679,2.774,25.365,25.365,0,0,0,3.225,2.192A35.818,35.818,0,0,0,406.58,282.973Z" transform="translate(-395.28 -272.75)" fill="#4ca1ff"/>
          </g>
        </g>
      </g>
      <g id="Сгруппировать_3274" data-name="Сгруппировать 3274" transform="translate(129.65 150.846)">
        <path id="Контур_7121" data-name="Контур 7121" d="M229.473,312.416a24.007,24.007,0,0,0-18.2-8.155c-5.068.066-10.04,1.747-15.094,1.442a19.289,19.289,0,0,1-17.926-22.032c.582-4,2.679-8.024,6.305-9.815a12.151,12.151,0,0,1,6.451-1.019,18.04,18.04,0,0,1,5.8,1.551,29.958,29.958,0,0,1,10.754,8.759c2.643,3.291,8.686,8.133,12.771,11.264,2.4,1.828,4.121,3.058,4.121,3.058C227.346,300.126,227.5,309.023,229.473,312.416Z" transform="translate(-178.065 -272.773)" fill="#52d2bc"/>
        <path id="Контур_7122" data-name="Контур 7122" d="M187.72,289.7c12.727,3.626,26.787,8.759,36.725,17.5" transform="translate(-180.69 -277.375)" fill="none" stroke="#00ad9f" stroke-linecap="round" stroke-linejoin="round" stroke-miterlimit="10" stroke-width="1"/>
      </g>
      <g id="Сгруппировать_3275" data-name="Сгруппировать 3275" transform="translate(186.933 151.717)">
        <path id="Контур_7123" data-name="Контур 7123" d="M288.507,283.632a16.131,16.131,0,0,1-1.646,6.2,13.843,13.843,0,0,1-2.752,3.509,21.219,21.219,0,0,1-1.762,1.493,25.869,25.869,0,0,1-7.725,4.056c-3.983,1.267-8.242,1.5-11.9,3.742a14.519,14.519,0,0,0-5.97,7.47l-.015-3.568c.393-3.946.786-7.965,2.257-11.737a33.151,33.151,0,0,1,3.823-6.881,47.57,47.57,0,0,1,8.329-9.363c2.57-2.17,5.512-4,8.65-4.478s6.473.692,7.914,3.458A11.194,11.194,0,0,1,288.507,283.632Z" transform="translate(-256.74 -273.969)" fill="#5193f4"/>
        <path id="Контур_7124" data-name="Контур 7124" d="M259.77,304.54a29.59,29.59,0,0,1,10.82-13.062c2.942-1.929,6.16-3.247,9.159-5.053s5.89-4.267,7.3-7.565" transform="translate(-257.564 -275.299)" fill="none" stroke="#0b43a4" stroke-linecap="round" stroke-linejoin="round" stroke-miterlimit="10" stroke-width="1" opacity="0.31"/>
      </g>
      <g id="Сгруппировать_3276" data-name="Сгруппировать 3276" transform="translate(179.288 174.395)">
        <path id="Контур_7125" data-name="Контур 7125" d="M251.191,314.919c5.6-5.555,13.543-8.1,21.348-9.218,6.509-.932,13.353-.968,19.44,1.514a10.35,10.35,0,0,1,4.915,3.582,4.857,4.857,0,0,1-.087,5.745c-1.165,1.3-3.051,1.609-4.791,1.667-5.716.2-11.315-1.456-16.914-2.628-9.625-2.017-20.11-2.5-28.862,1.988" transform="translate(-246.24 -305.116)" fill="#52d2bc"/>
        <path id="Контур_7126" data-name="Контур 7126" d="M262.63,313.465c11.584-4.886,28.323-3.313,35.626,1.74" transform="translate(-250.696 -306.581)" fill="none" stroke="#00ad9f" stroke-linecap="round" stroke-linejoin="round" stroke-miterlimit="10" stroke-width="1"/>
      </g>
      <g id="Сгруппировать_3279" data-name="Сгруппировать 3279" transform="translate(0 109.094)">
        <path id="Контур_7127" data-name="Контур 7127" d="M54.17,230.778c-5.235-2.519-7.747-9.218-12.05-10.659-5.33-1.842-6.83,4.114-15.443,2.643-7.237-1.238-9.436-9.371-21.53-6.851C1.456,216.682-1,219.8.393,223.548c1.041,3.728,6.167,6.087,9.225,7.987,2.709,1.529,5.1,2.352,6.713,5.191.015.029.036.058.051.095,1.078,2.308.648,4.369,3.167,6.065,5.9,4.318,13.266-2.541,19.986-2.337,4.74.138,4.609,5.06,10.3,6.487,5.643,1.413,3.793-3.64,15.632.947a.831.831,0,0,0,1.07-.473h0a.827.827,0,0,0-.175-.866C58.073,237.957,61.873,234.484,54.17,230.778Z" transform="translate(0.002 -215.429)" fill="#4a84d8"/>
        <path id="Контур_7128" data-name="Контур 7128" d="M54.17,230.778c-5.235-2.519-7.747-9.218-12.05-10.659-5.33-1.842-6.83,4.114-15.443,2.643-7.237-1.238-9.436-9.371-21.53-6.851C1.456,216.682-1,219.8.393,223.548c1.041,3.728,6.167,6.087,9.225,7.987,2.709,1.529,5.1,2.352,6.713,5.191.015.029.036.058.051.095,1.078,2.308.648,4.369,3.167,6.065,5.9,4.318,13.266-2.541,19.986-2.337,4.74.138,4.609,5.06,10.3,6.487,5.643,1.413,3.793-3.64,15.632.947a.831.831,0,0,0,1.07-.473h0a.827.827,0,0,0-.175-.866C58.073,237.957,61.873,234.484,54.17,230.778Z" transform="translate(0.002 -215.429)" fill="#00ad9f"/>
        <g id="Сгруппировать_3278" data-name="Сгруппировать 3278" transform="translate(6.403 5.045)" opacity="0.5">
          <g id="Сгруппировать_3277" data-name="Сгруппировать 3277">
            <path id="Контур_7129" data-name="Контур 7129" d="M63.26,243.969c-3.706-1.828-6.036-5.432-9.363-7.783a10.154,10.154,0,0,0-5.352-2.053c-2.177-.08-4.383,1.041-6.524.306-1.638-.561-2.847-1.915-4.361-2.709a4.922,4.922,0,0,0-2.41-.612c-1.143.022-2.243.4-3.378.5-3.881.306-6.932-2.927-9.8-5.038a21.747,21.747,0,0,0-13.128-4.216c-.269.007-.153.714.153.714a21.231,21.231,0,0,1,12.05,3.568c2.963,2,5.672,5.119,9.385,5.635a8.585,8.585,0,0,0,2.891-.175,6.728,6.728,0,0,1,3.182-.109c1.66.473,2.891,1.828,4.361,2.665a5.4,5.4,0,0,0,2.541.75,16.836,16.836,0,0,0,3.189-.4,8.5,8.5,0,0,1,3.182,0,9.667,9.667,0,0,1,2.8,1.107c3.954,2.272,6.378,6.48,10.5,8.511.342.167.328-.539.087-.655Z" transform="translate(-8.793 -222.358)" fill="#4ca1ff"/>
          </g>
        </g>
      </g>
      <g id="Сгруппировать_3280" data-name="Сгруппировать 3280" transform="translate(25.67 154.103)">
        <path id="Контур_7130" data-name="Контур 7130" d="M114.723,282.79c-17.227,1.82-19.979,3.306-24.107,1.522-5.264-2.272-10.8-1.711-16.1-3.888s-11.067-3.837-16.724-2.92c-1.791.291-3.772,1.019-4.026,3.116A3.446,3.446,0,0,0,54.429,283c1.245,1.74,3.284,2.323,5.228,2.861l6.509,1.8a2.062,2.062,0,0,1-.189,4.019c-.015,0-.036.007-.058.007a15.812,15.812,0,0,1-5.468-.51c-3.91-.866-7.827-1.922-11.832-1.922-4.849-.007-9.982,1.74-12.385,6.262a8.272,8.272,0,0,0-.866,5.25c.845,5,5.519,6.669,9.662,6.291a34.16,34.16,0,0,0,8.424-2.388c6.72-2.432,12.48.248,19.622.437C92.815,305.63,114.723,282.79,114.723,282.79Z" transform="translate(-35.254 -277.246)" fill="#7ee8d4"/>
        <path id="Контур_7131" data-name="Контур 7131" d="M42.77,300.867c12.268-1.4,24.617-2.818,36.39-6.553,3.451-1.092,7.9-1.4,17.642-8.584" transform="translate(-37.298 -279.553)" fill="none" stroke="#00ad9f" stroke-linecap="round" stroke-linejoin="round" stroke-miterlimit="10" stroke-width="1"/>
      </g>
      <g id="Сгруппировать_3283" data-name="Сгруппировать 3283" transform="translate(27.666 46.825)">
        <path id="Контур_7132" data-name="Контур 7132" d="M61.342,187.364a6.779,6.779,0,0,0,1.281.794c2.1,1.034,4.514,1.18,6.189,3.073a22.434,22.434,0,0,1,2.563,4.194,7.2,7.2,0,0,0,.575.9c2.592,3.553,5.14,3.961,7.863,3.9,1.121-.029,2.279-.131,3.466-.131a11.592,11.592,0,0,1,5.847,1.376,15.844,15.844,0,0,1,4.15,3.378.87.87,0,0,0,1.1.073.936.936,0,0,0,.43-.954,13.141,13.141,0,0,0-3.873-7.048c-4.827-4.565-11.948-4.929-12.378-14.351-.087-2.017.335-3.451.015-4.886a5.124,5.124,0,0,0-1.23-2.264c-1.456-1.573-3.553-2.272-5.424-3.524-5.06-3.611-2.65-9.516-3.094-15.137-.3-4.587-4.427-7.572-7.8-10.172-4.216-3.1-4.208-8.7-7.055-12.858s-9.909-5.839-13.674-.248c-4,5.585-1.8,12.567-.655,18.232a13.044,13.044,0,0,0,1.514,3.99c2.1,3.677,5.716,6.3,8.839,9.407a22.434,22.434,0,0,1,4.645,6.524,19.257,19.257,0,0,1,1.442,4.572c.066.379.138.75.211,1.121C57.017,181.262,57.876,184.757,61.342,187.364Z" transform="translate(-37.996 -129.907)" fill="#7ee8d4"/>
        <g id="Сгруппировать_3282" data-name="Сгруппировать 3282" transform="translate(5.404 3.375)" opacity="0.5">
          <g id="Сгруппировать_3281" data-name="Сгруппировать 3281">
            <path id="Контур_7133" data-name="Контур 7133" d="M45.42,134.824a34.688,34.688,0,0,0,1.063,8.621,13.256,13.256,0,0,0,1.7,3.721,15.125,15.125,0,0,0,2.439,2.709c1.813,1.631,3.888,3.022,5.424,4.944a8.726,8.726,0,0,1,1.66,3.4,8.728,8.728,0,0,0,1.405,3.575c.881,1.07,2.257,1.522,3.32,2.374a9.071,9.071,0,0,1,2.148,2.665c1.143,2.046,1.769,4.332,2.8,6.429a12.746,12.746,0,0,0,1.813,2.818c.925,1.041,2.264,1.718,2.978,2.942a10.283,10.283,0,0,1,.91,4.136,15.014,15.014,0,0,0,.881,3.961c2.184,5.606,7.609,8.817,12.764,11.315.721.349,1.442.692,2.17,1.027.335.16.32-.546.08-.663-5.271-2.483-11.1-5.2-14-10.565a12.1,12.1,0,0,1-1.332-4,36.585,36.585,0,0,0-.561-4.077,5.921,5.921,0,0,0-2.061-3.175,11.561,11.561,0,0,1-2.563-2.73c-2.388-3.793-2.767-8.926-6.917-11.424a11.656,11.656,0,0,1-1.835-1.194,3.994,3.994,0,0,1-1.07-1.7,36.76,36.76,0,0,0-1.15-3.728,15.962,15.962,0,0,0-4.609-5.162c-1.966-1.624-3.961-3.24-5.126-5.563a21.29,21.29,0,0,1-1.777-8.424c-.036-.714-.066-1.42-.095-2.133-.036-.364-.488-.582-.466-.095Z" transform="translate(-45.419 -134.542)" fill="#4ca1ff"/>
          </g>
        </g>
        <path id="Контур_7134" data-name="Контур 7134" d="M96.989,217.941a11.592,11.592,0,0,1,5.847,1.376c.189-2.891,1.158-3.495,1.806-4.551-4.827-4.565-11.948-4.929-12.378-14.351-.087-2.017.335-3.451.015-4.886-1.442,3.022-4.019,3.64-3.823,6.728.175,3.182,4.245,6.131,4.973,10.142C94.041,215.713,95.264,216.558,96.989,217.941Z" transform="translate(-51.714 -147.75)" fill="#5a4fd1" opacity="0.37"/>
      </g>
      <g id="Сгруппировать_3284" data-name="Сгруппировать 3284" transform="translate(108.977 163.467)">
        <path id="Контур_7135" data-name="Контур 7135" d="M160.33,291.15c-3.255-1.289-7.6-1.813-9.684,1-1.747,2.352-.845,5.686.364,8.351,1.019,2.257,2.315,4.543,4.463,5.767a12.824,12.824,0,0,0,4.864,1.289,117.08,117.08,0,0,0,14.1.815,29.525,29.525,0,0,1,16.593,5.621C185.231,303.215,171.28,295.475,160.33,291.15Z" transform="translate(-149.671 -290.107)" fill="#5084da"/>
        <path id="Контур_7136" data-name="Контур 7136" d="M156.46,301.17a50.591,50.591,0,0,1,12.3,1.646c4.063,1.2,19.7,8.38,22.149,11.431" transform="translate(-151.517 -293.115)" fill="none" stroke="#0b43a4" stroke-linecap="round" stroke-linejoin="round" stroke-miterlimit="10" stroke-width="1" opacity="0.31"/>
      </g>
      <g id="Сгруппировать_3287" data-name="Сгруппировать 3287" transform="translate(274.287 43.246)">
        <path id="Контур_7137" data-name="Контур 7137" d="M381.073,166.106a6.931,6.931,0,0,0-.138,1.434c.007,2.243.91,4.369.007,6.611a21.31,21.31,0,0,1-2.5,3.975,6.61,6.61,0,0,0-.524.874c-1.944,3.728-1.209,6.087,0,8.395.5.947,1.085,1.893,1.587,2.912a11,11,0,0,1,1.3,5.592,15.093,15.093,0,0,1-1.129,4.995.832.832,0,0,0,.408.976.9.9,0,0,0,1-.036,12.585,12.585,0,0,0,4.39-6.313c1.857-6.08-.859-12.334,7.026-16.717,1.689-.939,3.1-1.18,4.194-2.068a4.9,4.9,0,0,0,1.412-2.017c.728-1.922.43-4.012.714-6.145.939-5.868,7.026-6.32,11.65-9.094,3.8-2.213,4.6-7.012,5.4-11.009.866-4.937,5.665-7.31,8.016-11.519s.786-10.972-5.606-11.817c-6.48-1.048-11.533,3.808-15.894,7.2a12.468,12.468,0,0,0-2.774,2.992c-2.257,3.371-2.956,7.58-4.3,11.577a21.38,21.38,0,0,1-3.611,6.757,18.5,18.5,0,0,1-3.3,3.182c-.291.218-.582.437-.874.663C384.458,159.793,381.83,162.021,381.073,166.106Z" transform="translate(-376.715 -124.99)" fill="#7ee8d4"/>
        <g id="Сгруппировать_3286" data-name="Сгруппировать 3286" transform="translate(5.979 2.701)" opacity="0.5">
          <g id="Сгруппировать_3285" data-name="Сгруппировать 3285">
            <path id="Контур_7138" data-name="Контур 7138" d="M421.684,128.722a34.054,34.054,0,0,0-6.655,4.339,12.876,12.876,0,0,0-2.454,2.912,13.889,13.889,0,0,0-1.376,3.335c-.67,2.359-.961,4.878-2.061,7.092a9.1,9.1,0,0,1-2.344,2.891,7.239,7.239,0,0,0-2.279,2.621c-.517,1.274-.277,2.709-.641,4.026a9.172,9.172,0,0,1-1.427,2.861c-1.289,1.813-2.949,3.32-4.289,5.089a11.473,11.473,0,0,0-1.587,2.745c-.481,1.238-.488,2.658-1.274,3.772a9.373,9.373,0,0,1-2.861,2.337,15.3,15.3,0,0,0-3.08,2.374c-4,4.216-4.471,10.324-4.427,15.836q.011,1.234.044,2.468c.007.371.459.59.444.1-.124-5.752-.255-12.174,3.5-16.943a12.281,12.281,0,0,1,2.854-2.6,23.233,23.233,0,0,0,3.058-2.1,5.7,5.7,0,0,0,1.682-3.153,10.169,10.169,0,0,1,1.281-3.262,49.113,49.113,0,0,1,4.128-4.98,10.27,10.27,0,0,0,2.636-5.781,7.834,7.834,0,0,1,.342-2.286,4.35,4.35,0,0,1,1.1-1.536,26.236,26.236,0,0,0,2.57-2.439c1.478-1.886,1.988-4.318,2.519-6.6a15.464,15.464,0,0,1,2.9-6.771,22.211,22.211,0,0,1,6.247-4.733c.568-.32,1.143-.641,1.726-.954.218-.131.007-.815-.277-.663Z" transform="translate(-384.926 -128.7)" fill="#4ca1ff"/>
          </g>
        </g>
      </g>
      <g id="Сгруппировать_3290" data-name="Сгруппировать 3290" transform="translate(248.74 156.637)">
        <path id="Контур_7139" data-name="Контур 7139" d="M352.718,298.327c4.958,2.8,6.982,9.516,11.1,11.2,5.1,2.148,6.939-3.582,15.276-1.587,7,1.675,8.621,9.771,20.612,8.089,3.662-.517,6.262-3.408,5.14-7.157-.772-3.713-5.643-6.349-8.5-8.4-2.548-1.667-4.842-2.628-6.225-5.512-.015-.029-.029-.066-.044-.095-.91-2.33-.349-4.318-2.708-6.131-5.5-4.609-13.135,1.631-19.7,1-4.623-.444-4.179-5.25-9.662-7-5.432-1.74-3.946,3.32-15.225-1.929a.815.815,0,0,0-1.078.393h0a.805.805,0,0,0,.116.859C349.362,291.061,345.415,294.206,352.718,298.327Z" transform="translate(-341.628 -280.727)" fill="#4a84d8"/>
        <path id="Контур_7140" data-name="Контур 7140" d="M352.718,298.327c4.958,2.8,6.982,9.516,11.1,11.2,5.1,2.148,6.939-3.582,15.276-1.587,7,1.675,8.621,9.771,20.612,8.089,3.662-.517,6.262-3.408,5.14-7.157-.772-3.713-5.643-6.349-8.5-8.4-2.548-1.667-4.842-2.628-6.225-5.512-.015-.029-.029-.066-.044-.095-.91-2.33-.349-4.318-2.708-6.131-5.5-4.609-13.135,1.631-19.7,1-4.623-.444-4.179-5.25-9.662-7-5.432-1.74-3.946,3.32-15.225-1.929a.815.815,0,0,0-1.078.393h0a.805.805,0,0,0,.116.859C349.362,291.061,345.415,294.206,352.718,298.327Z" transform="translate(-341.628 -280.727)" fill="#00ad9f"/>
        <g id="Сгруппировать_3289" data-name="Сгруппировать 3289" transform="translate(5.113 5.438)" opacity="0.5">
          <g id="Сгруппировать_3288" data-name="Сгруппировать 3288">
            <path id="Контур_7141" data-name="Контур 7141" d="M348.817,288.883c3.553,2.053,5.606,5.788,8.774,8.3a9.694,9.694,0,0,0,5.133,2.264c2.09.167,4.3-.764,6.313.131,1.529.684,2.621,2.039,4.034,2.912a4.859,4.859,0,0,0,2.461.757c1.129.022,2.228-.291,3.357-.269,3.728.058,6.429,3.306,9.058,5.526a21.232,21.232,0,0,0,12.56,4.995c.328.015.233-.7-.036-.714a20.865,20.865,0,0,1-11.489-4.179c-2.781-2.112-5.162-5.293-8.708-6.152a7.846,7.846,0,0,0-2.8-.1,7.568,7.568,0,0,1-3.284-.022c-1.609-.524-2.738-1.929-4.107-2.854a5.383,5.383,0,0,0-2.381-.947,13.738,13.738,0,0,0-3.138.153,8.747,8.747,0,0,1-3.138-.153,9.4,9.4,0,0,1-2.679-1.223c-3.793-2.461-5.9-6.8-9.844-9.079-.328-.189-.32.517-.087.655Z" transform="translate(-348.65 -288.196)" fill="#4ca1ff"/>
          </g>
        </g>
      </g>
      <g id="Сгруппировать_3304" data-name="Сгруппировать 3304" transform="translate(16.129 91.103)">
        <g id="Сгруппировать_3291" data-name="Сгруппировать 3291" transform="translate(0 38.567)">
          <path id="Контур_7142" data-name="Контур 7142" d="M88.7,274.67s-21.617-4.733-38.247-2.949c-.524.058.116-3.218.116-3.218s-3.422,3.633-4.289,3.772c-9.145,1.463-18.057,4.609-24.129,10.783,0,0,11.06-45.441,71.645-38.684Z" transform="translate(-22.15 -243.689)" fill="#5084da"/>
        </g>
        <g id="Сгруппировать_3292" data-name="Сгруппировать 3292" transform="translate(15.691)">
          <path id="Контур_7143" data-name="Контур 7143" d="M107.125,262.707a118.274,118.274,0,0,1-21.777-13.79c-.481-.379,1.711-3.276,1.711-3.276s-4.82.786-5.657.08c-13.863-11.664-29.714-29.663-37.7-55,0,0,13.273.561,31.847,7.347.794.291,2.912,4.252,2.912,4.252s.866-2.818,1.565-2.534a151.946,151.946,0,0,1,56.5,39.885Z" transform="translate(-43.7 -190.72)" fill="#5193f4"/>
        </g>
        <g id="Сгруппировать_3299" data-name="Сгруппировать 3299" transform="translate(15.691 0.619)" opacity="0.4">
          <g id="Сгруппировать_3293" data-name="Сгруппировать 3293">
            <path id="Контур_7144" data-name="Контур 7144" d="M43.7,191.57A221.747,221.747,0,0,1,67.312,204c7.66,4.551,15.043,9.545,22.243,14.788,3.619,2.6,7.063,5.432,10.572,8.169l5.111,4.3c.845.721,1.711,1.427,2.548,2.162l2.454,2.264A217.66,217.66,0,0,1,128.9,254.762l-4.7-4.725-2.344-2.366c-.794-.772-1.624-1.514-2.432-2.279l-4.842-4.572-5-4.39c-3.306-2.963-6.793-5.708-10.193-8.555-3.517-2.7-6.975-5.483-10.594-8.046-7.106-5.308-14.475-10.266-22-14.984q-5.635-3.549-11.409-6.866Q49.63,194.624,43.7,191.57Z" transform="translate(-43.7 -191.57)" fill="#5084da"/>
          </g>
          <g id="Сгруппировать_3294" data-name="Сгруппировать 3294" transform="translate(24.144 26.997)">
            <path id="Контур_7145" data-name="Контур 7145" d="M103.4,233.266c-2.2-.539-4.4-1.012-6.589-1.5-2.192-.459-4.383-.9-6.589-1.252-2.2-.379-4.412-.633-6.633-.852-2.228-.182-4.456-.269-6.728-.262a29.343,29.343,0,0,1,6.771-.75,45.2,45.2,0,0,1,6.8.582A47.754,47.754,0,0,1,103.4,233.266Z" transform="translate(-76.86 -228.649)" fill="#5084da"/>
          </g>
          <g id="Сгруппировать_3295" data-name="Сгруппировать 3295" transform="translate(10.827 15.9)">
            <path id="Контур_7146" data-name="Контур 7146" d="M77.151,214.552c-1.565-.095-3.124-.153-4.674-.211s-3.1-.073-4.653-.044-3.087.117-4.631.24c-1.544.153-3.073.364-4.623.655a20.279,20.279,0,0,1,4.529-1.347,30.97,30.97,0,0,1,4.711-.437A32.8,32.8,0,0,1,77.151,214.552Z" transform="translate(-58.57 -213.407)" fill="#5084da"/>
          </g>
          <g id="Сгруппировать_3296" data-name="Сгруппировать 3296" transform="translate(45.12 43.103)">
            <path id="Контур_7147" data-name="Контур 7147" d="M130.418,255.408a42.334,42.334,0,0,0-6.007-2.046,39.627,39.627,0,0,0-6.167-1.143,37.444,37.444,0,0,0-6.262-.2,55.225,55.225,0,0,0-6.313.7,24,24,0,0,1,6.218-1.7,25.511,25.511,0,0,1,6.495-.08,26.422,26.422,0,0,1,6.32,1.471A21.01,21.01,0,0,1,130.418,255.408Z" transform="translate(-105.67 -250.769)" fill="#5084da"/>
          </g>
          <g id="Сгруппировать_3297" data-name="Сгруппировать 3297" transform="translate(39.543 17.081)">
            <path id="Контур_7148" data-name="Контур 7148" d="M109.15,229.563a83.071,83.071,0,0,0-5.075-7.66c-.9-1.223-1.871-2.388-2.883-3.524-1-1.158-2.1-2.206-3.182-3.349a17.386,17.386,0,0,1,3.9,2.636,22.227,22.227,0,0,1,3.2,3.466,24.746,24.746,0,0,1,2.468,4.012A18.475,18.475,0,0,1,109.15,229.563Z" transform="translate(-98.01 -215.03)" fill="#5084da"/>
          </g>
          <g id="Сгруппировать_3298" data-name="Сгруппировать 3298" transform="translate(57.913 28.556)">
            <path id="Контур_7149" data-name="Контур 7149" d="M134.962,249.546c-.837-1.682-1.7-3.327-2.548-4.973-.866-1.631-1.747-3.255-2.687-4.835s-1.944-3.116-2.992-4.623a55.37,55.37,0,0,0-3.495-4.325,20.474,20.474,0,0,1,4.281,3.691,32.6,32.6,0,0,1,3.32,4.594A34.983,34.983,0,0,1,134.962,249.546Z" transform="translate(-123.24 -230.79)" fill="#5084da"/>
          </g>
        </g>
        <g id="Сгруппировать_3301" data-name="Сгруппировать 3301" transform="translate(9.298 52.007)" opacity="0.5">
          <g id="Сгруппировать_3300" data-name="Сгруппировать 3300">
            <path id="Контур_7150" data-name="Контур 7150" d="M34.92,278.138a34.763,34.763,0,0,1,10.557-9.065,50.386,50.386,0,0,1,13.011-5.213l3.437-.728c1.143-.255,2.315-.335,3.473-.5a59.091,59.091,0,0,1,6.99-.459c1.165-.073,2.33.044,3.495.087l3.488.167c2.308.291,4.616.612,6.9.976-2.33-.073-4.631-.262-6.939-.342l-3.466.015a34.076,34.076,0,0,0-3.451.095c-2.294.218-4.6.255-6.866.677-1.129.189-2.286.269-3.4.532l-3.357.743a58.587,58.587,0,0,0-12.836,4.827c-1.012.539-2.031,1.07-2.992,1.7-.481.306-.983.6-1.456.925l-1.4,1A33.133,33.133,0,0,0,34.92,278.138Z" transform="translate(-34.92 -262.148)" fill="#4ca1ff"/>
          </g>
        </g>
        <g id="Сгруппировать_3303" data-name="Сгруппировать 3303" transform="translate(40.693 52.605)" opacity="0.5">
          <g id="Сгруппировать_3302" data-name="Сгруппировать 3302">
            <path id="Контур_7151" data-name="Контур 7151" d="M84.039,262.97c-1.26,2.01-2.49,3.91-3.509,5.919a23.894,23.894,0,0,0-2.279,6.4,10.424,10.424,0,0,1,1.129-6.99,15.917,15.917,0,0,1,2-2.963A12.121,12.121,0,0,1,84.039,262.97Z" transform="translate(-78.039 -262.97)" fill="#4ca1ff"/>
          </g>
        </g>
      </g>
      <g id="Сгруппировать_3312" data-name="Сгруппировать 3312" transform="translate(59.793 6.855)">
        <rect id="Прямоугольник_1013" data-name="Прямоугольник 1013" width="35.808" height="24.624" transform="translate(98.497 151.452)" fill="#0056ec"/>
        <rect id="Прямоугольник_1014" data-name="Прямоугольник 1014" width="35.808" height="8.926" transform="translate(98.497 151.452)" fill="#605aca" opacity="0.5"/>
        <path id="Контур_7152" data-name="Контур 7152" d="M263.206,316.31H190.527a4.157,4.157,0,1,0,0,8.315h72.679a4.161,4.161,0,0,0,4.157-4.157h0A4.156,4.156,0,0,0,263.206,316.31Z" transform="translate(-110.466 -140.62)" fill="#0056ec"/>
        <path id="Контур_7153" data-name="Контур 7153" d="M267.364,321.645a4.155,4.155,0,0,1-4.157,4.15H190.527a4.159,4.159,0,0,1-4.157-4.15,3.8,3.8,0,0,1,.131-1,4.147,4.147,0,0,0,4.026,3.153h72.679a4.147,4.147,0,0,0,4.026-3.153A3.49,3.49,0,0,1,267.364,321.645Z" transform="translate(-110.466 -141.797)" fill="#605aca" opacity="0.5"/>
        <g id="Сгруппировать_3308" data-name="Сгруппировать 3308">
          <g id="Сгруппировать_3306" data-name="Сгруппировать 3306">
            <g id="Сгруппировать_3305" data-name="Сгруппировать 3305">
              <path id="Контур_7154" data-name="Контур 7154" d="M87.168,230.568a2.551,2.551,0,0,1-2.548-2.548V80.048A2.551,2.551,0,0,1,87.168,77.5H311.234a2.551,2.551,0,0,1,2.548,2.548V228.02a2.551,2.551,0,0,1-2.548,2.548H87.168Z" transform="translate(-82.8 -75.687)" fill="#fff"/>
              <path id="Контур_7155" data-name="Контур 7155" d="M310.554,78.65a.73.73,0,0,1,.728.728V227.35a.73.73,0,0,1-.728.728H86.489a.73.73,0,0,1-.728-.728V79.379a.73.73,0,0,1,.728-.728H310.554m0-3.64H86.489a4.372,4.372,0,0,0-4.369,4.369V227.35a4.372,4.372,0,0,0,4.369,4.369H310.554a4.372,4.372,0,0,0,4.369-4.369V79.379a4.363,4.363,0,0,0-4.369-4.369Z" transform="translate(-82.12 -75.01)" fill="#0056ec"/>
            </g>
          </g>
          <g id="Сгруппировать_3307" data-name="Сгруппировать 3307" transform="translate(0 137.567)">
            <path id="Контур_7156" data-name="Контур 7156" d="M314.923,278.417V263.95H82.12v14.467a4.924,4.924,0,0,0,4.929,4.929H309.993A4.924,4.924,0,0,0,314.923,278.417Z" transform="translate(-82.12 -263.95)" fill="#0056ec"/>
          </g>
        </g>
        <g id="Сгруппировать_3311" data-name="Сгруппировать 3311" transform="translate(98.454 15.45)">
          <circle id="Эллипс_72" data-name="Эллипс 72" cx="17.948" cy="17.948" r="17.948" fill="#c8eefb"/>
          <g id="Сгруппировать_3310" data-name="Сгруппировать 3310">
            <g id="Сгруппировать_3309" data-name="Сгруппировать 3309" clip-path="url(#clip-path)">
              <path id="Контур_7157" data-name="Контур 7157" d="M245.022,112.661a6.932,6.932,0,1,1-6.932-6.932A6.929,6.929,0,0,1,245.022,112.661Zm3.524,29.037V129.583a8.34,8.34,0,0,0-8.337-8.337h-4.252a8.34,8.34,0,0,0-8.337,8.337V141.7a2.309,2.309,0,0,0,2.308,2.308h16.309A2.3,2.3,0,0,0,248.546,141.7Z" transform="translate(-220.135 -98.813)" fill="#5084da"/>
            </g>
          </g>
        </g>
        <path id="Контур_7158" data-name="Контур 7158" d="M266.241,168.258H180.369a7.1,7.1,0,0,1-7.1-7.1h0a7.1,7.1,0,0,1,7.1-7.1h85.872a7.1,7.1,0,0,1,7.1,7.1h0A7.1,7.1,0,0,1,266.241,168.258Z" transform="translate(-106.904 -96.504)" fill="#c8eefb"/>
        <path id="Контур_7159" data-name="Контур 7159" d="M266.336,164.973H186.427a1.855,1.855,0,0,1-1.857-1.857h0a1.855,1.855,0,0,1,1.857-1.857h79.909a1.855,1.855,0,0,1,1.857,1.857h0A1.864,1.864,0,0,1,266.336,164.973Z" transform="translate(-109.976 -98.461)" fill="#5084da"/>
        <path id="Контур_7160" data-name="Контур 7160" d="M266.334,203.338H180.469a7.1,7.1,0,0,1-7.1-7.1h0a7.1,7.1,0,0,1,7.1-7.1h85.872a7.1,7.1,0,0,1,7.1,7.1h0A7.1,7.1,0,0,1,266.334,203.338Z" transform="translate(-106.931 -106.042)" fill="#c8eefb"/>
        <path id="Контур_7161" data-name="Контур 7161" d="M185.447,200.223h0a1.855,1.855,0,0,1-1.857-1.857h0a1.855,1.855,0,0,1,1.857-1.857h0a1.855,1.855,0,0,1,1.857,1.857h0A1.864,1.864,0,0,1,185.447,200.223Zm7.361-1.857h0a1.855,1.855,0,0,0-1.857-1.857h0a1.855,1.855,0,0,0-1.857,1.857h0a1.855,1.855,0,0,0,1.857,1.857h0A1.855,1.855,0,0,0,192.808,198.367Zm5.519,0h0a1.855,1.855,0,0,0-1.857-1.857h0a1.855,1.855,0,0,0-1.857,1.857h0a1.855,1.855,0,0,0,1.857,1.857h0A1.855,1.855,0,0,0,198.327,198.367Zm5.512,0h0a1.855,1.855,0,0,0-1.857-1.857h0a1.855,1.855,0,0,0-1.857,1.857h0a1.855,1.855,0,0,0,1.857,1.857h0A1.855,1.855,0,0,0,203.838,198.367Zm5.512,0h0a1.855,1.855,0,0,0-1.857-1.857h0a1.855,1.855,0,0,0-1.857,1.857h0a1.855,1.855,0,0,0,1.857,1.857h0A1.855,1.855,0,0,0,209.35,198.367Zm5.519,0h0a1.855,1.855,0,0,0-1.857-1.857h0a1.855,1.855,0,0,0-1.857,1.857h0a1.855,1.855,0,0,0,1.857,1.857h0A1.855,1.855,0,0,0,214.869,198.367Zm5.512,0h0a1.855,1.855,0,0,0-1.857-1.857h0a1.855,1.855,0,0,0-1.857,1.857h0a1.855,1.855,0,0,0,1.857,1.857h0A1.855,1.855,0,0,0,220.381,198.367Z" transform="translate(-109.71 -108.046)" fill="#5084da"/>
        <path id="Контур_7162" data-name="Контур 7162" d="M246.98,240.088H222.589a7.1,7.1,0,0,1-7.1-7.1h0a7.1,7.1,0,0,1,7.1-7.1H246.98a7.1,7.1,0,0,1,7.1,7.1h0A7.1,7.1,0,0,1,246.98,240.088Z" transform="translate(-118.383 -116.034)" fill="#5084da"/>
      </g>
      <path id="Контур_7163" data-name="Контур 7163" d="M346.737,274.916V266.8a4.832,4.832,0,0,0-4.835-4.835h-.422v-7.521a20.052,20.052,0,1,0-40.1,0v7.521h-.422a4.832,4.832,0,0,0-4.835,4.835v8.118ZM308,254.442a13.426,13.426,0,1,1,26.852,0v7.521H308Z" transform="translate(-80.514 -111.491)" opacity="0.09"/>
      <path id="Контур_7164" data-name="Контур 7164" d="M365.088,177.9a12.814,12.814,0,0,0-7.259-2.876c-.007-.269-.007-.531.007-.874a5.047,5.047,0,0,0,3.495-3.284c2-1.929,3.364-4.318,2.7-7.325a.6.6,0,0,1,.073-.444c-.859-1.544-2.446-2.279-4.208-3.874-5.919-5.366-12.953,2.09-10.288,5.155a5.317,5.317,0,0,1,.743,1.689.135.135,0,0,0-.015.051,2.564,2.564,0,0,0,.437,2.024c.029.3.051.6.051.91.007.029.029.051.036.087a3.565,3.565,0,0,0,.5,1.26,4.7,4.7,0,0,0,3.014,3.539c.138.044.284.095.437.131a2.14,2.14,0,0,1,.065.968,11.687,11.687,0,0,0-4.74,1.587c-11.315,5.468-22.506,23.1-21.268,26.983s4.361,8.439,6.466,11.475l.328-.058c.167.582.342,1.172.51,1.755a1.216,1.216,0,0,0,1.573,1.048,2.215,2.215,0,0,0,1.42-.4,1.562,1.562,0,0,0,.415-.75,3.2,3.2,0,0,0-.379-2.272l.248-.044s-4.878-7.3-4.7-11.752c.066-1.624,3.874-5.461,6.968-8.315-.073.99-.109,2-.109,3.022l-1.485,35.473s1.281.255,3.335.582l1.995,21.188h8.016l.189-19.957.313.022.277.022c.393.029.786.051,1.187.08l.4.022.43.022.786,19.79h7.907l1.616-20.154c.007,0,.022-.007.029-.007q.491-.076.961-.175l.408-.087c.262-.058.517-.124.772-.189.138-.036.269-.073.4-.109.255-.073.5-.153.735-.233.109-.036.226-.073.328-.116.335-.124.663-.262.961-.408L371,194.712c0-.83-.022-1.631-.073-2.417a1.417,1.417,0,0,0-.015-.175c-.044-.728-.117-1.442-.2-2.133a1.986,1.986,0,0,0-.029-.2c-.007-.066-.015-.124-.022-.189,1.565.313,3.6.684,6.262,1.136a11.309,11.309,0,0,0,5.024-.313v-7.769C375.332,183.4,367.92,179.611,365.088,177.9Z" transform="translate(-89.392 -90.539)" opacity="0.09"/>
      <g id="Сгруппировать_3313" data-name="Сгруппировать 3313" transform="translate(155.356 84.128)">
        <circle id="Эллипс_74" data-name="Эллипс 74" cx="12.334" cy="12.334" r="12.334" fill="#94ebff" opacity="0.3"/>
        <circle id="Эллипс_75" data-name="Эллипс 75" cx="6.691" cy="6.691" r="6.691" transform="translate(5.643 5.643)" fill="#94ebff" opacity="0.5"/>
      </g>
      <g id="Сгруппировать_3314" data-name="Сгруппировать 3314" transform="translate(210.597 122.899)">
        <path id="Контур_7165" data-name="Контур 7165" d="M316.522,234.39a20.07,20.07,0,0,0-20.052,20.052v19.287h40.1V254.442A20.075,20.075,0,0,0,316.522,234.39ZM303.1,267.1V254.442a13.426,13.426,0,1,1,26.852,0V267.1Z" transform="translate(-291.206 -234.39)" fill="#f9714e"/>
        <path id="Контур_7166" data-name="Контур 7166" d="M318.031,239.83a16.029,16.029,0,0,0-16.011,16.011v15.4h32.022v-15.4A16.034,16.034,0,0,0,318.031,239.83Zm13.426,28.745H304.6V255.921a13.426,13.426,0,0,1,26.852,0Z" transform="translate(-292.715 -235.869)" fill="#f9714e" opacity="0.4"/>
        <path id="Контур_7167" data-name="Контур 7167" d="M334.936,312.638H294.169a4.928,4.928,0,0,1-4.929-4.929V277.179a4.928,4.928,0,0,1,4.929-4.929h40.766a4.928,4.928,0,0,1,4.929,4.929v30.529A4.928,4.928,0,0,1,334.936,312.638Z" transform="translate(-289.24 -244.684)" fill="#ffb255"/>
        <path id="Контур_7168" data-name="Контур 7168" d="M328.612,293.4a7.361,7.361,0,1,0-10.754,6.531v7.958h6.771v-7.958A7.346,7.346,0,0,0,328.612,293.4Z" transform="translate(-295.942 -248.434)" fill="#f9714e"/>
        <path id="Контур_7169" data-name="Контур 7169" d="M335.136,272.26H322.977a75.785,75.785,0,0,1-12.043,22.891c-4.893,6.356-12.589,14.416-21.3,14.249a4.831,4.831,0,0,0,4.558,3.24h40.948a4.832,4.832,0,0,0,4.835-4.835V277.095A4.837,4.837,0,0,0,335.136,272.26Z" transform="translate(-289.346 -244.687)" fill="#ffb255" opacity="0.4"/>
      </g>
      <g id="Сгруппировать_3319" data-name="Сгруппировать 3319" transform="translate(234.377 66.796)">
        <path id="Контур_7170" data-name="Контур 7170" d="M330.73,233.987c.32,1.114.641,2.221.968,3.335a1.216,1.216,0,0,0,1.573,1.048,2.215,2.215,0,0,0,1.42-.4,1.562,1.562,0,0,0,.415-.75,3.3,3.3,0,0,0-.459-2.425A9.582,9.582,0,0,0,333,232.88" transform="translate(-324.302 -177.876)" fill="#ffc2d3"/>
        <path id="Контур_7171" data-name="Контур 7171" d="M413.05,179.861a26.859,26.859,0,0,1,1.587-4.521,2.213,2.213,0,0,1,.248,1.609,3.622,3.622,0,0,1,1.777-1.871.367.367,0,0,1,.3-.044c.109.044.153.175.182.284a5.125,5.125,0,0,1-3.058,6.014" transform="translate(-346.684 -162.142)" fill="#ffc2d3"/>
        <path id="Контур_7172" data-name="Контур 7172" d="M366.42,324.03c2.832.692,5.206,1.522,6.5,2.694H362l.211-2.534Z" transform="translate(-332.804 -202.659)" fill="#5084da"/>
        <path id="Контур_7173" data-name="Контур 7173" d="M347.3,324.03c-2.832.692-5.206,1.522-6.5,2.694h10.921l-.211-2.534Z" transform="translate(-327.04 -202.659)" fill="#5084da"/>
        <g id="Сгруппировать_3316" data-name="Сгруппировать 3316" transform="translate(12.799 56.104)">
          <g id="Сгруппировать_3315" data-name="Сгруппировать 3315">
            <path id="Контур_7174" data-name="Контур 7174" d="M366.041,236.028,360.893,300.1a17.666,17.666,0,0,1-2.417.437,10.512,10.512,0,0,1-1.413-.2c-.6-.124-1.114-.24-1.114-.24l-1.929-48.433H351.6l-.466,48.433a10.444,10.444,0,0,1-2.628.386,13.97,13.97,0,0,1-2.847-.386L339.48,234.39Z" transform="translate(-339.48 -234.39)" fill="#2e2c84"/>
          </g>
        </g>
        <g id="Сгруппировать_3317" data-name="Сгруппировать 3317" transform="translate(20.418 56.57)" opacity="0.3">
          <path id="Контур_7175" data-name="Контур 7175" d="M359.013,235.591l-9.065-.561c-.109,11.8,1.667,53.974,1.849,65.609a10.628,10.628,0,0,0,2.184-.371l.466-48.433h2.417l1.929,48.433s.517.124,1.114.24c.175.029.357.066.532.095C360.433,287.417,359.239,241.015,359.013,235.591Z" transform="translate(-349.943 -235.03)" fill="#2e2c84" opacity="0.5"/>
        </g>
        <g id="Сгруппировать_3318" data-name="Сгруппировать 3318" transform="translate(20.257)">
          <path id="Контур_7176" data-name="Контур 7176" d="M351.512,169.054c.007.029.029.051.036.087.393,2.119,2.4,3.2,4.638,3.823,1.82.5,2.235.721,3.7-.335,3.029-2.184,5.716-5.089,4.842-9.087a.6.6,0,0,1,.073-.444c-.859-1.544-2.446-2.279-4.208-3.874-5.919-5.366-12.953,2.09-10.288,5.155A9.552,9.552,0,0,1,351.512,169.054Z" transform="translate(-349.722 -157.335)" fill="#001f64"/>
        </g>
        <path id="Контур_7177" data-name="Контур 7177" d="M368.371,201.293c0-12.181-5.038-19.753-14.693-19.753s-14.722,10.186-14.722,22.367L337.47,239.38s22.506,4.463,31.061.284Z" transform="translate(-326.134 -163.916)" fill="#8fc2ff"/>
        <path id="Контур_7178" data-name="Контур 7178" d="M371.351,205.282a32,32,0,0,0-1.172-9.072c-.859,13.251-2.017,48.542-21.748,48.4,7.332.917,17.831,1.609,23.081-.954Z" transform="translate(-329.114 -167.905)" fill="#8fc2ff" opacity="0.3"/>
        <path id="Контур_7179" data-name="Контур 7179" d="M362.438,170.016c-.364-2.4-2.5-4.8-5.1-3.553a5.271,5.271,0,0,1-4.769.16c-.044.459-.095,1.136-.146,1.842-.291-.532-.772-.612-.917.051-.153.706.036,2.024.8,2.272v.349c.036,1.791.764,4.645,3.677,5.322a2.883,2.883,0,0,1-.08,1.682c.16.561,2.425.925,3.167.262a12.53,12.53,0,0,1-.058-1.864c1.718-.277,3.153-1.973,3.8-4.15C365.4,170.941,363.544,168.291,362.438,170.016Z" transform="translate(-329.936 -159.724)" fill="#ffc2d3"/>
        <path id="Контур_7180" data-name="Контур 7180" d="M363.962,170.494a5.424,5.424,0,0,0-1.18-2.614c.073,4.165-1.7,8.038-5.723,8.934.138.044.284.095.437.131a2.883,2.883,0,0,1-.08,1.682c.16.561,2.425.925,3.167.262a12.53,12.53,0,0,1-.058-1.864c1.718-.277,3.153-1.973,3.8-4.15C366.926,171.419,365.069,168.768,363.962,170.494Z" transform="translate(-331.461 -160.202)" fill="#ffc2d3" opacity="0.3"/>
        <path id="Контур_7181" data-name="Контур 7181" d="M343.263,183.83c-11.315,5.468-22.506,23.1-21.268,26.983s4.361,8.439,6.466,11.475l4.114-.721s-4.878-7.3-4.7-11.752c.109-2.745,10.9-11.788,10.9-11.788Z" transform="translate(-321.901 -164.539)" fill="#8fc2ff"/>
        <path id="Контур_7182" data-name="Контур 7182" d="M370.39,183.024c1.769,1.274,16.557,10.135,24.69,2.308,5.876-5.65,6.466-6.742,6.466-6.742l2.017,3.568s-9.189,16.215-20.307,14.344-11.395-2.454-11.395-2.454Z" transform="translate(-335.085 -163.114)" fill="#8fc2ff"/>
      </g>
      <g id="Сгруппировать_3336" data-name="Сгруппировать 3336" transform="translate(76.422 69.296)">
        <path id="Контур_7183" data-name="Контур 7183" d="M115.452,252.509a17.824,17.824,0,0,0-10.106,7.638H135.38a17.825,17.825,0,0,0-10.106-7.638V178.92h-9.822v1.2H104.96v8.861h10.492v2.111H104.96v8.861h10.492Z" transform="translate(-104.96 -165.704)" opacity="0.09"/>
        <g id="Сгруппировать_3321" data-name="Сгруппировать 3321" transform="translate(4.106 13.221)">
          <rect id="Прямоугольник_1015" data-name="Прямоугольник 1015" width="12.582" height="8.861" transform="translate(14.91 10.058) rotate(180)" fill="#ffb255"/>
          <rect id="Прямоугольник_1016" data-name="Прямоугольник 1016" width="12.582" height="8.861" transform="translate(14.91 21.026) rotate(180)" fill="#ffb255"/>
          <rect id="Прямоугольник_1017" data-name="Прямоугольник 1017" width="3.211" height="8.861" transform="translate(14.908 10.058) rotate(180)" fill="#ffc87c" opacity="0.5"/>
          <rect id="Прямоугольник_1018" data-name="Прямоугольник 1018" width="3.211" height="8.861" transform="translate(14.908 21.026) rotate(180)" fill="#ffc87c" opacity="0.5"/>
          <rect id="Прямоугольник_1019" data-name="Прямоугольник 1019" width="9.822" height="76.989" transform="translate(22.641 76.989) rotate(180)" fill="#ffb255"/>
          <path id="Контур_7184" data-name="Контур 7184" d="M134.517,259.552h.306a.6.6,0,0,0,.6-.6V183.167a.6.6,0,0,0-.6-.6h-.306a.6.6,0,0,0-.6.6v75.788A.591.591,0,0,0,134.517,259.552Z" transform="translate(-116.941 -179.918)" fill="#ffc87c" opacity="0.5"/>
          <g id="Сгруппировать_3320" data-name="Сгруппировать 3320" transform="translate(0 72.885)">
            <path id="Контур_7185" data-name="Контур 7185" d="M110.6,296.759a17.726,17.726,0,1,1,17.722,17.722A17.749,17.749,0,0,1,110.6,296.759Zm9.145,0a8.584,8.584,0,1,0,8.584-8.584A8.595,8.595,0,0,0,119.745,296.759Z" transform="translate(-110.6 -279.03)" fill="#ffb255"/>
          </g>
          <path id="Контур_7186" data-name="Контур 7186" d="M122.01,299.862a9.422,9.422,0,1,0,9.422-9.422A9.432,9.432,0,0,0,122.01,299.862Zm.837,0a8.584,8.584,0,1,1,8.584,8.584A8.595,8.595,0,0,1,122.847,299.862Z" transform="translate(-113.702 -209.248)" fill="#ffc87c" opacity="0.5"/>
        </g>
        <g id="Сгруппировать_3335" data-name="Сгруппировать 3335" transform="translate(20.828)">
          <path id="Контур_7187" data-name="Контур 7187" d="M199.032,190.505c-3.109,2.752-14.314,14.489-16.368,8.1-1.624-5.06-5.038-12.014-7.033-14.351a9.515,9.515,0,0,0-4.849-2.971v-.808c1.944-.007,4.98-.386,4.98-7.39a12.544,12.544,0,0,0-.568-4.427,2.14,2.14,0,0,0,.131-2.41,7.085,7.085,0,0,0-2.92-2.1c-2.25-1-5.184-1.456-7.339-.066a9.332,9.332,0,0,0-2.709-2.366,6.585,6.585,0,0,0-2.963-.954c-2.075-.044-3.874,1.551-4.827,3.386a7.553,7.553,0,0,0-.823,4.878,5.454,5.454,0,0,0,2.9,3.9,2.6,2.6,0,0,0,1.434.284,2.981,2.981,0,0,0,1.653-1c1.107-1.15,1.3-2.527,2.1-3.772a1.376,1.376,0,0,1,.451-.422,9.064,9.064,0,0,0-.379,2.5,14.943,14.943,0,0,0,1.944,6.91,4.111,4.111,0,0,0,1.158,1.514,2.865,2.865,0,0,0,2.352.349l-.226,1.718a12.326,12.326,0,0,0-4.558,1.332v-.007c-8.424,1.937-14.78,22.622-26.044,21.246v.029c-1.369-.379-2.876-.488-2.956.852-.153,2.628,1.478,2.963,2.956,2.745v.058a21.491,21.491,0,0,0,16.462-7.434c-3.029,17.081-1.82,39.456-1.82,39.456.815.117,1.624.226,2.425.32l1.383,15.654h7.172l.015-14.933c1.449.058,2.883.087,4.31.08l.167,14.853h8.322l1.609-15.581c1.471-.2,2.934-.459,4.376-.757-.3-9.392-.335-21.676-.961-32.313a3.419,3.419,0,0,0,1.544.881c.976.24,5.191,5.1,8.22,1.405,3.073-3.742,9.494-11.475,11.846-15.465C201.1,192.107,199.739,191.721,199.032,190.505Z" transform="translate(-133.566 -160.769)" opacity="0.09"/>
          <path id="Контур_7188" data-name="Контур 7188" d="M185.8,185.32l-.473,3.626,3.808.422v-3.83Z" transform="translate(-147.641 -167.444)" fill="#f9acc8"/>
          <path id="Контур_7189" data-name="Контур 7189" d="M143.678,221.327s-5.046-2.49-5.191,0c-.277,4.711,5.191,2.053,5.191,2.053Z" transform="translate(-134.901 -176.934)" opacity="0.1"/>
          <path id="Контур_7190" data-name="Контур 7190" d="M144.658,220.347s-5.046-2.49-5.191,0c-.277,4.711,5.191,2.053,5.191,2.053Z" transform="translate(-135.168 -176.667)" fill="#ffc2d3"/>
          <g id="Сгруппировать_3322" data-name="Сгруппировать 3322" transform="translate(34.719 6.225)">
            <path id="Контур_7191" data-name="Контур 7191" d="M181.25,175.407c0,3.3,3.4,7.39,6.7,7.39,1.937,0,5.068-.291,5.068-7.39,0-7.47-2.5-5.963-5.8-5.963A5.968,5.968,0,0,0,181.25,175.407Z" transform="translate(-181.25 -169.319)" fill="#ffc2d3"/>
          </g>
          <path id="Контур_7192" data-name="Контур 7192" d="M186.269,178.224a25.772,25.772,0,0,1,1.391-8.744c-.146.007-.291.007-.437.007a5.961,5.961,0,0,0-5.963,5.963c0,3.233,3.276,7.23,6.509,7.383A6.62,6.62,0,0,1,186.269,178.224Z" transform="translate(-146.534 -163.137)" fill="#ffc2d3" opacity="0.3"/>
          <path id="Контур_7193" data-name="Контур 7193" d="M190.976,170.014c-.524.08-1.092-.175-1.587.029-.794.32-.845,1.529-1.58,1.973-.91.553-2.286-.408-3.087.306-.473.422-.415,1.158-.364,1.791a13.389,13.389,0,0,1-.546,4.951c-.117.371.379,1.034.087,1.289-.488.422-1.893.051-2.417-.313a4.1,4.1,0,0,1-1.158-1.529,15.178,15.178,0,0,1-1.944-6.975,7.925,7.925,0,0,1,2.985-6.371c2.17-1.558,5.206-1.085,7.514-.051a6.957,6.957,0,0,1,2.92,2.119C192.33,168.114,192.25,169.825,190.976,170.014Z" transform="translate(-145.751 -161.691)" fill="#ffb255"/>
          <path id="Контур_7194" data-name="Контур 7194" d="M191.592,166.54c-.779.7-1.558,1.951-2.148,2.359a9,9,0,0,1-2.7.961c-4.245,1.3-4.536,7.813-2.687,11.286a1.421,1.421,0,0,0,1.085-.153c.291-.255-.2-.917-.087-1.289a13.389,13.389,0,0,0,.546-4.951,2.129,2.129,0,0,1,.364-1.791c.8-.714,2.17.248,3.087-.306.728-.444.786-1.653,1.58-1.973.5-.2,1.063.051,1.587-.029,1.274-.189,1.362-1.9.823-2.789A4.447,4.447,0,0,0,191.592,166.54Z" transform="translate(-147 -162.338)" fill="#ffc87c" opacity="0.5"/>
          <path id="Контур_7195" data-name="Контур 7195" d="M175.73,161.731a6.422,6.422,0,0,0-2.963-.961c-2.075-.044-3.873,1.565-4.827,3.422a7.7,7.7,0,0,0-.823,4.929,5.5,5.5,0,0,0,2.9,3.939,2.6,2.6,0,0,0,1.434.284,2.993,2.993,0,0,0,1.653-1c1.107-1.165,1.3-2.548,2.1-3.808.655-1.019,2.1-.6,3.065-1.267C180.717,165.568,177.237,162.561,175.73,161.731Z" transform="translate(-142.657 -160.769)" fill="#ffb255"/>
          <path id="Контур_7196" data-name="Контур 7196" d="M177.505,167.774c-.444-.226-.794-.641-1.23-.866-.626-.684-3.852-1.041-4.522,3.444a5.355,5.355,0,0,1-2.294,3.393,4.852,4.852,0,0,0,1.23.859,2.6,2.6,0,0,0,1.434.284,2.993,2.993,0,0,0,1.653-1c1.107-1.165,1.3-2.548,2.1-3.808.655-1.019,2.1-.6,3.065-1.267a1.966,1.966,0,0,0,.692-.786A2.593,2.593,0,0,1,177.505,167.774Z" transform="translate(-143.326 -162.327)" fill="#ffc87c" opacity="0.5"/>
          <path id="Контур_7197" data-name="Контур 7197" d="M175.94,324.03c2.832.692,5.206,1.522,6.5,2.694H171.52l.211-2.534Z" transform="translate(-143.886 -205.16)" fill="#f9714e"/>
          <path id="Контур_7198" data-name="Контур 7198" d="M189.38,324.03c2.832.692,5.206,1.522,6.5,2.694H184.96l.211-2.534Z" transform="translate(-147.54 -205.16)" fill="#f9714e"/>
          <path id="Контур_7199" data-name="Контур 7199" d="M228.3,198.2a1.261,1.261,0,0,0-.226-.1c-.408-.109-.786.175-1.129.422a19.094,19.094,0,0,0-2.213,1.908h.007a2.589,2.589,0,0,0-.422.473,1.771,1.771,0,0,0-.131,1.893,1.585,1.585,0,0,0,1.3.765,3.388,3.388,0,0,0,2.294-1,1.6,1.6,0,0,0,.1-1.944,1.584,1.584,0,0,0-1-.83,8.846,8.846,0,0,0,1.3-.961.776.776,0,0,0,.233-.3A.3.3,0,0,0,228.3,198.2Z" transform="translate(-158.147 -170.913)" opacity="0.1"/>
          <g id="Сгруппировать_3325" data-name="Сгруппировать 3325" transform="translate(65.977 26.327)">
            <g id="Сгруппировать_3323" data-name="Сгруппировать 3323" transform="translate(0 1.66)">
              <path id="Контур_7200" data-name="Контур 7200" d="M228.1,200.09a1.593,1.593,0,0,1-.1,1.944,3.388,3.388,0,0,1-2.293,1,1.61,1.61,0,0,1-1.3-.765,1.771,1.771,0,0,1,.131-1.893C225.323,199.224,227.289,198.583,228.1,200.09Z" transform="translate(-224.181 -199.207)" fill="#ffc2d3"/>
            </g>
            <g id="Сгруппировать_3324" data-name="Сгруппировать 3324" transform="translate(0.771)">
              <path id="Контур_7201" data-name="Контур 7201" d="M227.1,198.822a8.358,8.358,0,0,0,1.58-1.136.776.776,0,0,0,.233-.3.281.281,0,0,0-.1-.335,1.261,1.261,0,0,0-.226-.1c-.408-.109-.786.175-1.129.422a19.093,19.093,0,0,0-2.213,1.908A3.872,3.872,0,0,0,227.1,198.822Z" transform="translate(-225.24 -196.927)" fill="#ffc2d3"/>
            </g>
          </g>
          <g id="Сгруппировать_3326" data-name="Сгруппировать 3326" transform="translate(45.228 23.482)">
            <path id="Контур_7202" data-name="Контур 7202" d="M205.161,207.786a97.1,97.1,0,0,0,10.921-8.839.558.558,0,0,1,.794.058c.67.8,1.769,1.988,1.653,2.49a1.728,1.728,0,0,1-.451.714q-5.133,5.69-10.273,11.38a11.117,11.117,0,0,1-2.213,2.046,3.8,3.8,0,0,1-2.876.6c-1.646-.408-2.57-2.1-3.466-3.546-4.427-7.106-3.7-9.676-3.153-11.861.379-1.522.852-3.022,1.129-4.572.087-.488-1.085-3.2-.415-3.24,1.995,2.337,4.995,9.443,7.033,14.351A.89.89,0,0,0,205.161,207.786Z" transform="translate(-195.685 -193.02)" fill="#f9714e"/>
          </g>
          <g id="Сгруппировать_3334" data-name="Сгруппировать 3334" transform="translate(22.749 59.472)">
            <g id="Сгруппировать_3327" data-name="Сгруппировать 3327">
              <path id="Контур_7203" data-name="Контур 7203" d="M164.81,243.943l5.148,58.386a19.115,19.115,0,0,0,2.417.4,11.352,11.352,0,0,0,1.413-.182c.6-.109,1.114-.218,1.114-.218l.051-44.137h4.259l.5,44.137a11.444,11.444,0,0,0,2.628.349,15.33,15.33,0,0,0,2.847-.349l6.182-59.879Z" transform="translate(-164.81 -242.45)" fill="#4b48b5"/>
            </g>
            <g id="Сгруппировать_3328" data-name="Сгруппировать 3328" transform="translate(13.244 5.861)">
              <path id="Контур_7204" data-name="Контур 7204" d="M183,250.507c.029,1.98-.109,3.764.582,5.555a3.486,3.486,0,0,0,3.509,2.286c2.548-.051,4.318-1.442,4.325-4.019a26.2,26.2,0,0,1,.328-3.83C191.744,250.507,183,250.507,183,250.507Z" transform="translate(-183 -250.5)" fill="#568edb"/>
            </g>
            <g id="Сгруппировать_3329" data-name="Сгруппировать 3329" transform="translate(1.15 5.876)">
              <path id="Контур_7205" data-name="Контур 7205" d="M166.39,250.52a22.092,22.092,0,0,0,.43,5.563c.379,1.405,1.238,2.33,2.454,2.3,1.777-.036,2.767-2.017,2.992-4,.036-.328.095-3.823.211-3.83Z" transform="translate(-166.39 -250.52)" fill="#568edb"/>
            </g>
            <g id="Сгруппировать_3330" data-name="Сгруппировать 3330" transform="translate(0.077 3.467)">
              <path id="Контур_7206" data-name="Контур 7206" d="M174.988,259.486h.022a.108.108,0,0,0,.087-.124c-.684-3.968-.211-11.562-.211-11.635a.1.1,0,0,0-.109-.109c-.066,0-6.873.32-9.727-.4a.106.106,0,0,0-.131.08.109.109,0,0,0,.08.131c2.672.677,8.744.451,9.669.415-.058.983-.422,7.849.218,11.569C174.886,259.45,174.937,259.486,174.988,259.486Z" transform="translate(-164.916 -247.212)" fill="#5e9ce4"/>
            </g>
            <g id="Сгруппировать_3331" data-name="Сгруппировать 3331" transform="translate(10.549 2.322)">
              <path id="Контур_7207" data-name="Контур 7207" d="M179.751,259.059h.007a.106.106,0,0,0,.095-.117,63.774,63.774,0,0,1-.153-11.5,89.344,89.344,0,0,0,14.649-1.587.108.108,0,0,0,.087-.124.1.1,0,0,0-.124-.087,89.47,89.47,0,0,1-14.708,1.58.1.1,0,0,0-.1.095,63.72,63.72,0,0,0,.138,11.635A.112.112,0,0,0,179.751,259.059Z" transform="translate(-179.298 -245.639)" fill="#5e9ce4"/>
            </g>
            <g id="Сгруппировать_3332" data-name="Сгруппировать 3332" transform="translate(7.658 15.605)" opacity="0.16">
              <path id="Контур_7208" data-name="Контур 7208" d="M176.655,308.382c.6-.109,1.114-.218,1.114-.218l.051-44.137h.357a.251.251,0,0,0-.357-.109,4.407,4.407,0,0,0-1.747,1.638,3.38,3.38,0,0,0-.663,1.915C175.067,281.071,175.861,291.425,176.655,308.382Z" transform="translate(-175.328 -263.882)" fill="#4e84d9"/>
            </g>
            <g id="Сгруппировать_3333" data-name="Сгруппировать 3333" transform="translate(19.847 3.294)">
              <path id="Контур_7209" data-name="Контур 7209" d="M192.164,302.336a.106.106,0,0,1-.095-.116l.087-.874a.1.1,0,0,1,.117-.095.106.106,0,0,1,.095.116l-.087.874a.1.1,0,0,1-.109.095Zm.262-2.57a.106.106,0,0,1-.095-.116l.175-1.7a.1.1,0,0,1,.116-.095.106.106,0,0,1,.095.117l-.175,1.7a.1.1,0,0,1-.109.095Zm.342-3.393a.106.106,0,0,1-.095-.116l.175-1.7c.007-.058.066-.109.116-.095a.106.106,0,0,1,.095.116l-.175,1.7a.1.1,0,0,1-.109.095Zm.349-3.393a.106.106,0,0,1-.095-.116l.175-1.7c.007-.058.066-.109.117-.095a.106.106,0,0,1,.095.116l-.175,1.7a.1.1,0,0,1-.109.095Zm.35-3.393a.106.106,0,0,1-.095-.116l.175-1.7a.1.1,0,0,1,.117-.095.106.106,0,0,1,.095.116l-.175,1.7a.1.1,0,0,1-.109.095Zm.342-3.393a.106.106,0,0,1-.095-.116l.175-1.7c.007-.058.058-.117.117-.095a.106.106,0,0,1,.095.116l-.175,1.7a.1.1,0,0,1-.109.095Zm.349-3.393a.106.106,0,0,1-.095-.116l.175-1.7c.007-.058.066-.109.117-.095a.106.106,0,0,1,.095.116l-.175,1.7a.1.1,0,0,1-.109.095C194.167,282.808,194.159,282.808,194.159,282.8Zm.342-3.386a.106.106,0,0,1-.095-.116l.175-1.7c.007-.058.058-.117.116-.095a.106.106,0,0,1,.095.117l-.175,1.7a.1.1,0,0,1-.109.095Zm.349-3.393a.106.106,0,0,1-.095-.116l.175-1.7a.1.1,0,0,1,.117-.095.106.106,0,0,1,.095.117l-.175,1.7a.1.1,0,0,1-.109.095Zm.349-3.393a.106.106,0,0,1-.095-.116l.175-1.7a.1.1,0,0,1,.109-.095h.007a.106.106,0,0,1,.095.117l-.175,1.7a.1.1,0,0,1-.109.095Zm.342-3.393a.106.106,0,0,1-.095-.116l.175-1.7c.007-.058.066-.109.117-.095a.106.106,0,0,1,.095.117l-.175,1.7a.1.1,0,0,1-.109.095Zm.35-3.393a.106.106,0,0,1-.095-.117l.175-1.7a.1.1,0,0,1,.117-.095.106.106,0,0,1,.095.116l-.175,1.7a.1.1,0,0,1-.109.095Zm.342-3.386a.106.106,0,0,1-.095-.117l.175-1.7a.1.1,0,0,1,.117-.095.106.106,0,0,1,.095.116l-.175,1.7a.1.1,0,0,1-.109.095Zm.35-3.393a.106.106,0,0,1-.095-.117l.175-1.7a.1.1,0,0,1,.117-.095.106.106,0,0,1,.095.116l-.175,1.7a.1.1,0,0,1-.109.095Zm.349-3.393a.106.106,0,0,1-.095-.116l.175-1.7c.007-.058.066-.117.117-.095a.106.106,0,0,1,.095.117l-.175,1.7a.1.1,0,0,1-.109.095Zm.342-3.393a.106.106,0,0,1-.095-.117l.175-1.7a.1.1,0,0,1,.117-.095.106.106,0,0,1,.095.117l-.175,1.7a.1.1,0,0,1-.109.095Zm.349-3.393a.106.106,0,0,1-.095-.117l.175-1.7c.007-.058.058-.117.117-.095a.106.106,0,0,1,.095.117l-.175,1.7a.1.1,0,0,1-.109.095Z" transform="translate(-192.069 -246.974)" fill="#5e9ce4"/>
            </g>
          </g>
          <path id="Контур_7210" data-name="Контур 7210" d="M169.574,190.37c-8.424,1.937-14.78,22.622-26.044,21.246v3.677c5.271,0,12.472-1.682,18.377-9.778C170.441,193.821,169.574,190.37,169.574,190.37Z" transform="translate(-136.275 -168.817)" fill="#f9714e"/>
          <path id="Контур_7211" data-name="Контур 7211" d="M169.574,190.37c-8.424,1.937-14.78,22.622-26.044,21.246v3.677c5.271,0,12.472-1.682,18.377-9.778C170.441,193.821,169.574,190.37,169.574,190.37Z" transform="translate(-136.275 -168.817)" fill="#f9714e" opacity="0.3"/>
          <path id="Контур_7212" data-name="Контур 7212" d="M188,191.794c5.17,5.927,4.74,35.983,5.33,54.651-9.32,1.959-19.316,1.871-29.787.364,0,0-1.631-30.078,3.611-47.115C170.719,188.131,182.544,185.539,188,191.794Z" transform="translate(-141.651 -168.304)" fill="#f9714e"/>
          <path id="Контур_7213" data-name="Контур 7213" d="M170.676,233.766a66.242,66.242,0,0,1-2.789-19.542c.015-5.585.153-11.642,1.616-17.154a18.347,18.347,0,0,0-2.352,4.951c-5.242,17.038-3.611,47.115-3.611,47.115a101.328,101.328,0,0,0,15.487,1.114A49.988,49.988,0,0,1,170.676,233.766Z" transform="translate(-141.651 -170.639)" fill="#f9714e" opacity="0.3"/>
        </g>
      </g>
      <g id="Сгруппировать_3337" data-name="Сгруппировать 3337" transform="translate(32.748 51.242)">
        <path id="Контур_7214" data-name="Контур 7214" d="M60.283,176.458c.757-.044,5.941-3.881,7.944-5.177a5.31,5.31,0,0,0,1.522-1.289,1.927,1.927,0,0,0,.291-1.893,2.392,2.392,0,0,0-2.425-1.5,5.487,5.487,0,0,0-4.733,2.155C58.725,173.051,60.283,176.458,60.283,176.458Z" transform="translate(-49.06 -144.301)" fill="#00ad9f"/>
        <path id="Контур_7215" data-name="Контур 7215" d="M90.929,200.16c2.257,1.012,4.667,2.024,7.121,1.711a2.667,2.667,0,0,0,2.308-1.463,2.144,2.144,0,0,0-.714-2.206,5.069,5.069,0,0,0-2.221-1,22.276,22.276,0,0,0-10.193.517A25.811,25.811,0,0,0,90.929,200.16Z" transform="translate(-56.465 -152.516)" fill="#00ad9f"/>
        <path id="Контур_7216" data-name="Контур 7216" d="M111.939,153.831c-1-.633-2.119-1.485-2.119-2.679a2.38,2.38,0,0,1,2.439-2.111,4.993,4.993,0,0,1,3.2,1.434c3.8,3.335,3.327,7.135,3.327,7.135S113.06,154.537,111.939,153.831Z" transform="translate(-62.607 -139.526)" fill="#00ad9f"/>
        <path id="Контур_7217" data-name="Контур 7217" d="M115.862,140.107a4.9,4.9,0,0,1-2.315-1.645,1.57,1.57,0,0,1-.24-1.332c.262-.735.721-1.405,2.585-1.063,5.9,1.07,7.179,5.1,7.179,5.1S117.427,140.784,115.862,140.107Z" transform="translate(-63.537 -135.974)" fill="#00ad9f"/>
        <path id="Контур_7218" data-name="Контур 7218" d="M140.56,150.734a9.338,9.338,0,0,0,6.3-3.225,5.806,5.806,0,0,0,1.267-2.344,2.575,2.575,0,0,0-.692-2.468,2.612,2.612,0,0,0-3.051,0,6.127,6.127,0,0,0-1.973,2.57C141.776,146.577,140.56,150.734,140.56,150.734Z" transform="translate(-70.965 -137.668)" fill="#00ad9f"/>
        <path id="Контур_7219" data-name="Контур 7219" d="M72.348,236.442q-8.584-7.569-17.176-15.144c-3.051-2.687-6.167-5.461-8.1-9.036-4.157-7.7-1.762-17.693,3.852-24.4s13.827-10.667,22.083-13.55,16.848-4.907,24.719-8.715c4.937-2.388,9.895-5.949,11.249-11.264A11.233,11.233,0,0,0,98.756,140.34" transform="translate(-44.976 -137.161)" fill="none" stroke="#086356" stroke-linecap="round" stroke-linejoin="round" stroke-miterlimit="10" stroke-width="1"/>
        <path id="Контур_7220" data-name="Контур 7220" d="M142.161,146.38c-1.565,4.805-7.66,7.725-10.441,11.89" transform="translate(-68.561 -138.803)" fill="none" stroke="#086356" stroke-linecap="round" stroke-linejoin="round" stroke-miterlimit="10" stroke-width="1"/>
        <path id="Контур_7221" data-name="Контур 7221" d="M116.01,153.97a45.448,45.448,0,0,1,3.684,3.713,8.075,8.075,0,0,1-.874,10.718" transform="translate(-64.29 -140.867)" fill="none" stroke="#086356" stroke-linecap="round" stroke-linejoin="round" stroke-miterlimit="10" stroke-width="1"/>
        <path id="Контур_7222" data-name="Контур 7222" d="M73.66,190.9a32.671,32.671,0,0,0,18.064,6.735" transform="translate(-52.775 -150.908)" fill="none" stroke="#086356" stroke-linecap="round" stroke-linejoin="round" stroke-miterlimit="10" stroke-width="1"/>
        <path id="Контур_7223" data-name="Контур 7223" d="M57.46,193.383a17.846,17.846,0,0,1,5.992-19.433" transform="translate(-48.137 -146.299)" fill="none" stroke="#086356" stroke-linecap="round" stroke-linejoin="round" stroke-miterlimit="10" stroke-width="1"/>
      </g>
      <g id="Сгруппировать_3338" data-name="Сгруппировать 3338" transform="translate(241.556)">
        <path id="Контур_7224" data-name="Контур 7224" d="M332.646,70.094a2.521,2.521,0,0,1,.364-2.527,1.853,1.853,0,0,1,1.973-.444c5.009,2.206,4.463,10.048,4.463,10.048S334.7,76.487,332.646,70.094Z" transform="translate(-331.955 -65.977)" fill="#00ad9f"/>
        <path id="Контур_7225" data-name="Контур 7225" d="M332.328,90.727c-3.24,5.876,8.271,5.424,12.429,1.966C344.757,92.693,335.117,85.674,332.328,90.727Z" transform="translate(-331.761 -71.931)" fill="#00ad9f"/>
        <path id="Контур_7226" data-name="Контур 7226" d="M352.258,70.164a3.129,3.129,0,0,1-.211-3.7,2.843,2.843,0,0,1,2.709-.808,6.365,6.365,0,0,1,3.043,1.857,9.954,9.954,0,0,1,2.01,9.356S353.54,71.919,352.258,70.164Z" transform="translate(-337.136 -65.595)" fill="#00ad9f"/>
        <path id="Контур_7227" data-name="Контур 7227" d="M415.273,90.651a2.61,2.61,0,0,1,.5-2.672,2.216,2.216,0,0,1,1.682-.5,5.075,5.075,0,0,1,1.726.517,5.5,5.5,0,0,1,2.65,2.643,10.777,10.777,0,0,1,.459,6.582S415.972,92.93,415.273,90.651Z" transform="translate(-354.427 -71.542)" fill="#00ad9f"/>
        <path id="Контур_7228" data-name="Контур 7228" d="M391.919,105.969a7.375,7.375,0,0,0-7.63-1.23,3.859,3.859,0,0,0-1.631,1.23,3.768,3.768,0,0,0,.349,4.339,9.505,9.505,0,0,0,3.786,2.628c2.563,1.165,6.538,1.4,9.269,2.1A13.241,13.241,0,0,0,391.919,105.969Z" transform="translate(-345.453 -76.085)" fill="#00ad9f"/>
        <path id="Контур_7229" data-name="Контур 7229" d="M337.64,72.99c1.7,5.563,6.487,9.757,11.824,12.028s11.213,2.869,17,3.247,11.642.561,17.234,2.082c5.453,1.485,10.885,4.58,13.222,9.735,2.847,6.276.328,13.783-3.67,19.4S383.867,129.614,380,135.315c-1.777,2.621-3.262,5.686-2.9,8.832.481,4.194,4,7.281,7.274,9.939" transform="translate(-333.359 -67.606)" fill="none" stroke="#086356" stroke-linecap="round" stroke-linejoin="round" stroke-miterlimit="10" stroke-width="1"/>
        <path id="Контур_7230" data-name="Контур 7230" d="M355.95,70.18A33.324,33.324,0,0,1,363.6,86.773" transform="translate(-338.338 -66.842)" fill="none" stroke="#086356" stroke-linecap="round" stroke-linejoin="round" stroke-miterlimit="10" stroke-width="1"/>
        <path id="Контур_7231" data-name="Контур 7231" d="M338.25,92.133a26.567,26.567,0,0,0,6.684,1.18,10.19,10.19,0,0,0,6.524-2.832" transform="translate(-333.525 -72.361)" fill="none" stroke="#086356" stroke-linecap="round" stroke-linejoin="round" stroke-miterlimit="10" stroke-width="1"/>
        <path id="Контур_7232" data-name="Контур 7232" d="M420.48,92.31a11.341,11.341,0,0,1,3.408,7.652,13.385,13.385,0,0,1-3.378,8.468" transform="translate(-355.884 -72.859)" fill="none" stroke="#086356" stroke-linecap="round" stroke-linejoin="round" stroke-miterlimit="10" stroke-width="1"/>
        <path id="Контур_7233" data-name="Контур 7233" d="M390.97,110.15A114.763,114.763,0,0,0,403.2,120.22c2.082,1.471,6.218,3.349,8.045,2.869" transform="translate(-347.86 -77.71)" fill="none" stroke="#086356" stroke-linecap="round" stroke-linejoin="round" stroke-miterlimit="10" stroke-width="1"/>
      </g>
    </g>
  </g>
</svg>
