<svg xmlns="http://www.w3.org/2000/svg" width="62" height="63" viewBox="0 0 62 63">
  <g id="Сгруппировать_4926" data-name="Сгруппировать 4926" transform="translate(-439 -2484)">
    <ellipse id="Эллипс_62" data-name="Эллипс 62" cx="31" cy="31.5" rx="31" ry="31.5" transform="translate(439 2484)" fill="#0e81a2"/>
    <g id="outline" transform="translate(452.194 2500.015)">
      <g id="Сгруппировать_3193" data-name="Сгруппировать 3193" transform="translate(0 0)">
        <path id="Контур_6714" data-name="Контур 6714" d="M43.579,62.662a6.368,6.368,0,1,0,6.367-6.367A6.375,6.375,0,0,0,43.579,62.662Zm6.368,4.563a4.554,4.554,0,0,1-3.9-6.925,7.314,7.314,0,0,0,3.86,1.757c1.789.38,3.7.569,4.087,2.676,0,.006,0,.01,0,.015A4.566,4.566,0,0,1,49.947,67.225Zm4.493-5.337c-1.911-1.57-5.291-1.009-7.165-2.917a4.55,4.55,0,0,1,7.165,2.917Z" transform="translate(-38.538 -52.416)" fill="#fff"/>
        <path id="Контур_6715" data-name="Контур 6715" d="M165.781,22.761a3.712,3.712,0,0,0-3.708,3.707v.389l-2.988,4.262,2.988-.346v5.547a3.712,3.712,0,0,0,3.708,3.707h7.292a3.711,3.711,0,0,0,3.707-3.707V26.467a3.711,3.711,0,0,0-3.707-3.707h-7.292Zm9.194,3.707V36.32a1.905,1.905,0,0,1-1.9,1.9h-7.291a1.905,1.905,0,0,1-1.9-1.9V28.747l-1.008.117,1.008-1.438v-.959a1.905,1.905,0,0,1,1.9-1.9h7.292A1.906,1.906,0,0,1,174.975,26.467Z" transform="translate(-140.683 -22.76)" fill="#fff"/>
        <path id="Контур_6716" data-name="Контур 6716" d="M.9,184.666h33.37a.9.9,0,0,0,0-1.8H21.54a2.693,2.693,0,0,0,.306-1.238l-1.122-7.673a3.316,3.316,0,0,0-3.5-2.971H13.2l-1.721,1.776-.023-.066-.051.143-.016.017L9.46,170.98H5.6a3.315,3.315,0,0,0-3.5,2.971L.981,181.492l-.009.132a2.69,2.69,0,0,0,.306,1.238H.9a.9.9,0,1,0,0,1.8Zm11.077-5.106-.523.341-.523-.341.523-1.474Zm-9.2,2.117,1.11-7.522.01-.132c0-.671.778-1.239,1.7-1.239H8.729l2,1.943L8.757,180.3l2.7,1.759,2.7-1.759-2-5.641,1.811-1.87H17.22c.921,0,1.7.567,1.7,1.238l1.12,7.655c-.041.647-.8,1.184-1.7,1.184H4.475C3.579,182.861,2.819,182.325,2.778,181.677Z" transform="translate(0 -153.834)" fill="#fff"/>
        <path id="Контур_6717" data-name="Контур 6717" d="M210.251,78.792h-.381a.121.121,0,0,0-.12.12v.9a.12.12,0,0,1-.12.12h-.923a.121.121,0,0,1-.121-.12v-.9a.121.121,0,0,0-.12-.12h-.382a.121.121,0,0,0-.12.12v2.754a.12.12,0,0,0,.12.12h.382a.121.121,0,0,0,.12-.12v-1.1a.121.121,0,0,1,.121-.12h.923a.12.12,0,0,1,.12.12v1.1a.121.121,0,0,0,.12.12h.381a.121.121,0,0,0,.12-.12V78.912A.121.121,0,0,0,210.251,78.792Z" transform="translate(-183.907 -72.31)" fill="#fff"/>
        <path id="Контур_6718" data-name="Контур 6718" d="M234.063,85.455a.9.9,0,0,0-.382-.328,1.263,1.263,0,0,0-.521-.1,1.063,1.063,0,0,0-.791.308,1.2,1.2,0,0,0-.305.882,1.155,1.155,0,0,0,.251.8,1.125,1.125,0,0,0,.185.153,1.2,1.2,0,0,0,.682.2,1.075,1.075,0,0,0,.833-.323.87.87,0,0,0,.187-.283.088.088,0,0,0-.093-.117h-.351a.237.237,0,0,0-.171.082.406.406,0,0,1-.068.07.489.489,0,0,1-.321.1.59.59,0,0,1-.32-.083.482.482,0,0,1-.218-.348.1.1,0,0,1,.107-.119h1.372a.119.119,0,0,0,.12-.12,2.474,2.474,0,0,0-.019-.319A1.089,1.089,0,0,0,234.063,85.455Zm-.526.515h-.757a.091.091,0,0,1-.095-.117.549.549,0,0,1,.129-.226.461.461,0,0,1,.346-.126.508.508,0,0,1,.344.119.431.431,0,0,1,.136.23A.1.1,0,0,1,233.538,85.97Z" transform="translate(-205.219 -77.821)" fill="#fff"/>
        <path id="Контур_6719" data-name="Контур 6719" d="M254.139,78.792H253.8a.121.121,0,0,0-.12.12v2.754a.121.121,0,0,0,.12.12h.338a.121.121,0,0,0,.12-.12V78.912A.121.121,0,0,0,254.139,78.792Z" transform="translate(-224.335 -72.31)" fill="#fff"/>
        <path id="Контур_6720" data-name="Контур 6720" d="M264.133,78.792h-.338a.121.121,0,0,0-.12.12v2.754a.121.121,0,0,0,.12.12h.338a.121.121,0,0,0,.12-.12V78.912A.121.121,0,0,0,264.133,78.792Z" transform="translate(-233.173 -72.31)" fill="#fff"/>
        <path id="Контур_6721" data-name="Контур 6721" d="M272.383,86.105a1.279,1.279,0,0,0,.281.833,1.221,1.221,0,0,0,1.7,0,1.371,1.371,0,0,0,0-1.663,1.207,1.207,0,0,0-1.7,0A1.291,1.291,0,0,0,272.383,86.105Zm.739-.513a.515.515,0,0,1,.781,0,1.037,1.037,0,0,1,0,1.026.512.512,0,0,1-.781,0,1.026,1.026,0,0,1,0-1.026Z" transform="translate(-240.875 -77.733)" fill="#fff"/>
      </g>
    </g>
  </g>
</svg>
