<svg xmlns="http://www.w3.org/2000/svg" width="62" height="63" viewBox="0 0 62 63">
  <g id="Сгруппировать_4930" data-name="Сгруппировать 4930" transform="translate(-1683 -2539)">
    <path id="Контур_6737" data-name="Контур 6737" d="M31,0A30.973,30.973,0,0,1,57.116,14.522,31.5,31.5,0,0,1,62,31.5C62,48.9,48.121,63,31,63S0,48.9,0,31.5,13.879,0,31,0Z" transform="translate(1683 2539)" fill="#0e81a2"/>
    <g id="Сгруппировать_3200" data-name="Сгруппировать 3200" transform="translate(1695.001 2553.99)">
      <path id="Контур_6738" data-name="Контур 6738" d="M39.708,19.743c2.238.034,3.849.588,3.571,3.153,1.147.059,2.217.084,3.279.188.342.034.911.245.938.436a1.2,1.2,0,0,1-.43,1.02,17.5,17.5,0,0,1-2.742,1.137c-.426.139-.629.283-.712.741-.373,2.082-.045,2.525,2.045,2.329A34.9,34.9,0,0,0,49.4,28.06c.845-.175,1.194-.081,1.473.747a18.609,18.609,0,0,1,.709,2.9.977.977,0,0,1-.5.8c-.437.161-.7-.169-.784-.625-.157-.81-.342-1.616-.527-2.48-1.08.2-2.072.423-3.077.566a11.483,11.483,0,0,1-2.044.117,2.385,2.385,0,0,1-2.506-3,10.288,10.288,0,0,1,.288-1.8c.087-.277.44-.509.723-.675.23-.135.536-.141.8-.315-.49-.066-.986-.107-1.47-.2-.772-.154-.938-.477-.659-1.187.373-.949.087-1.491-.885-1.67-.384-.07-.773-.119-1.155-.2a1.482,1.482,0,0,1-.941-2.376c.76-1.074,1.53-2.147,2.371-3.158a3.8,3.8,0,0,0,.651-2.885,24.227,24.227,0,0,1-.047-4.362,7.794,7.794,0,0,1,3.853-5.765,14.227,14.227,0,0,1,14.976-.651c3.313,1.748,5.655,4.412,6.164,8.309a13.261,13.261,0,0,1-.875,6.246c-.772,2.154-1.585,4.293-2.412,6.425-.988,2.544-.534,5.095-.1,7.649.041.241.082.481.138.719.1.448-.013.8-.484.907s-.741-.2-.807-.64c-.179-1.181-.3-2.371-.5-3.548a12.321,12.321,0,0,1,.916-6.648,62.485,62.485,0,0,0,2.3-6.531c1.519-5.809-1.133-10.625-6.833-12.6A13.021,13.021,0,0,0,45.6,4.17c-2.44,1.8-2.874,4.455-2.568,7.3a6.438,6.438,0,0,0,.1.65,5.32,5.32,0,0,1-1.425,4.907C41.021,17.8,40.473,18.692,39.708,19.743Z" transform="translate(-32.883 0)" fill="#fff"/>
      <path id="Контур_6739" data-name="Контур 6739" d="M105.82,33.457c-.285-.511-.566-.964-.794-1.442-.192-.4-.241-.82.277-1.045.49-.213.71.1.9.484.15.3.323.594.58,1.064l1.293-1.78-.123-.2h-3.109a1.754,1.754,0,0,1-.722-.026c-.245-.123-.581-.389-.58-.59a.839.839,0,0,1,.571-.588,12.29,12.29,0,0,1,1.778-.028c.1-.539.092-1.228.8-1.083.332.067.577.555.861.851-.045.073-.09.148-.135.222a17.909,17.909,0,0,1,1.884.021,2.672,2.672,0,0,1,.836.43c-.158.258-.311.519-.481.77-.062.09-.2.134-.249.226-.537.919-1.065,1.841-1.651,2.861.332.288.735.666,1.169,1.008.354.277.552.6.276.995-.3.44-.712.359-1.078.06-.47-.383-.921-.789-1.4-1.2-.38.323-.748.638-1.12.951-.34.288-.712.386-1.032.012s-.186-.719.158-1.015C105.1,34.092,105.459,33.771,105.82,33.457Z" transform="translate(-88.348 -24.059)" fill="#fff"/>
      <path id="Контур_6740" data-name="Контур 6740" d="M152.021,67.427c.066-.233.119-.471.2-.7.666-1.88,1.318-3.765,2.028-5.627a1.222,1.222,0,0,1,.764-.69c.185-.032.562.4.672.69.722,1.91,1.394,3.84,2.081,5.762.032.091.059.185.091.277.153.418.114.8-.346.964s-.726-.091-.9-.508c-.154-.367-.3-.982-.538-1.024a7.634,7.634,0,0,0-2.246,0c-.169.021-.255.528-.424.782a1.909,1.909,0,0,1-.624.713C152.342,68.269,151.968,67.911,152.021,67.427Zm3.742-2.217c-.257-.72-.49-1.372-.8-2.226-.3.847-.536,1.511-.788,2.226Z" transform="translate(-129.711 -51.536)" fill="#fff"/>
      <path id="Контур_6741" data-name="Контур 6741" d="M13.818,143.784c.006.585-.456.92-.924.715-1.649-.72-3.293-1.459-4.91-2.248a.867.867,0,0,1-.283-.814.886.886,0,0,1,.811-.321c1.66.7,3.3,1.45,4.924,2.213C13.626,143.417,13.733,143.678,13.818,143.784Z" transform="translate(-6.55 -120.383)" fill="#fff"/>
      <path id="Контур_6742" data-name="Контур 6742" d="M7.036,185.75c-.128-.129-.474-.326-.467-.508A1.022,1.022,0,0,1,7,184.463c.958-.418,1.957-.745,2.942-1.1a13.426,13.426,0,0,1,1.864-.637c.26-.053.587.236.883.368-.136.274-.207.715-.418.8-1.608.637-3.243,1.206-4.872,1.793A3.49,3.49,0,0,1,7.036,185.75Z" transform="translate(-5.606 -155.897)" fill="#fff"/>
      <path id="Контур_6743" data-name="Контур 6743" d="M3.273,170.924c-.8,0-1.607.007-2.409,0-.393,0-.853,0-.864-.543s.426-.568.835-.568H5.8c.411,0,.836.028.826.574-.009.5-.418.533-.8.536-.853.007-1.7,0-2.556,0Z" transform="translate(0 -144.885)" fill="#fff"/>
    </g>
  </g>
</svg>
