<svg xmlns="http://www.w3.org/2000/svg" width="62" height="63" viewBox="0 0 62 63">
  <g id="Сгруппировать_4929" data-name="Сгруппировать 4929" transform="translate(-1277 -2697)">
    <path id="Контур_6735" data-name="Контур 6735" d="M31,0A30.973,30.973,0,0,1,57.116,14.522,31.5,31.5,0,0,1,62,31.5C62,48.9,48.121,63,31,63S0,48.9,0,31.5,13.879,0,31,0Z" transform="translate(1277 2697)" fill="#2139bb"/>
    <path id="education" d="M34.685,6.512,23.611,2.29a.52.52,0,1,0-.371.972L33.04,7,26.256,9.585,17.724,5.722a.52.52,0,0,0-.429.948l7.592,3.437L17.51,12.919,1.98,7,17.51,1.077l3.827,1.459a.52.52,0,1,0,.371-.972L17.7.035a.52.52,0,0,0-.371,0L.334,6.512A.521.521,0,0,0,0,7V9.374a.521.521,0,0,0,.335.486L5.64,11.882v1.8a.52.52,0,1,0,1.04,0V12.279l10.645,4.058a.52.52,0,0,0,.371,0l8.024-3.059V21.51A17.623,17.623,0,0,1,6.68,19.823V15.765a.52.52,0,1,0-1.04,0v4.31a.52.52,0,0,0,.195.406,18.66,18.66,0,0,0,19.884,2.194v2.105a1.976,1.976,0,1,0,1.04,0V22.126a18.538,18.538,0,0,0,2.426-1.645.52.52,0,0,0,.2-.406V11.882l5.305-2.023a.52.52,0,0,0,.335-.486V7a.521.521,0,0,0-.335-.486Zm-7.51,20.175a.936.936,0,1,1-.936-.936A.937.937,0,0,1,27.175,26.687ZM1.04,7.753l15.95,6.081V15.1L1.04,9.015ZM18.03,15.1V13.835L25.719,10.9v1.262Zm10.31,4.727a17.423,17.423,0,0,1-1.581,1.095V12.881l1.581-.6Zm-1.581-8.055V10.506L33.98,7.753V9.015Zm0,0" transform="translate(1290.753 2716.387)" fill="#fff"/>
  </g>
</svg>
