<svg xmlns="http://www.w3.org/2000/svg" width="62" height="63" viewBox="0 0 62 63">
  <g id="Сгруппировать_4927" data-name="Сгруппировать 4927" transform="translate(-852 -2666)">
    <ellipse id="Эллипс_64" data-name="Эллипс 64" cx="31" cy="31.5" rx="31" ry="31.5" transform="translate(852 2666)" fill="#407bff"/>
    <g id="cultures" transform="translate(868 2674.068)">
      <path id="Контур_6722" data-name="Контур 6722" d="M28.059,37.358h-.223a8.53,8.53,0,0,1-.506-2.522,8.532,8.532,0,0,1,.506-2.522h.223a.417.417,0,1,0,0-.834H24.913a.417.417,0,1,0,0-.834h-.045a6.435,6.435,0,0,1-1.034-1.461.417.417,0,0,0-.741.382,7.261,7.261,0,0,0,.684,1.079H4.462a2.07,2.07,0,0,1-2.068-2.068V23.915a2.07,2.07,0,0,1,2.068-2.068H16.676v1.506a.584.584,0,0,0,.381.551.618.618,0,0,0,.65-.162l.455-.518.455.518a.589.589,0,0,0,1.031-.389V21.847h4.125a7.21,7.21,0,0,0-1.484,4.4A7.331,7.331,0,0,0,22.4,27.52a.417.417,0,0,0,.821-.145,6.489,6.489,0,0,1-.1-1.127,6.386,6.386,0,0,1,1.742-4.4h.046a.417.417,0,1,0,0-.834h3a.417.417,0,0,0,0-.834h-.174a7.643,7.643,0,0,1-.448-2.248,7.643,7.643,0,0,1,.448-2.248h.174a.417.417,0,1,0,0-.834H24.857a.417.417,0,0,0,.291-.716,1.733,1.733,0,0,1,0-2.486.42.42,0,0,0-.291-.716H6.044a.417.417,0,0,0,0,.834h18a2.58,2.58,0,0,0,0,2.25H1.979a1.125,1.125,0,1,1,0-2.25H3.925a.417.417,0,0,0,0-.834H1.979a1.959,1.959,0,1,0,0,3.918h3.89a3.082,3.082,0,0,0,0,6.163H4.462a2.905,2.905,0,0,0-2.9,2.9v4.664a2.905,2.905,0,0,0,2.9,2.9H3.355a3.355,3.355,0,1,0,0,6.711H20.9a.417.417,0,0,0,0-.834H3.355a2.522,2.522,0,0,1,0-5.043h23.6a8.838,8.838,0,0,0-.46,2.522,8.839,8.839,0,0,0,.46,2.522h-3.92a.417.417,0,0,0,0,.834h5.023a.417.417,0,0,0,0-.834Zm-9.5-14.946a.528.528,0,0,0-.793,0l-.256.291V17.657h1.305V22.7ZM3.621,17.932a2.25,2.25,0,0,1,2.248-2.248H26.863a7.973,7.973,0,0,0-.4,2.248,7.973,7.973,0,0,0,.4,2.248H19.649V17.658h3.779a.417.417,0,1,0,0-.834H16.533a.417.417,0,1,0,0,.834h.143V20.18H5.869a2.25,2.25,0,0,1-2.248-2.248Z" fill="#fff"/>
      <path id="Контур_6723" data-name="Контур 6723" d="M213.481,276.107h9.165a.417.417,0,0,0,0-.834h-9.165a.417.417,0,0,0,0,.834Z" transform="translate(-201.214 -249.639)" fill="#fff"/>
      <path id="Контур_6724" data-name="Контур 6724" d="M290.186,443.246a.417.417,0,0,0,0,.834h1.873a.417.417,0,1,0,0-.834Z" transform="translate(-273.653 -408.27)" fill="#fff"/>
      <path id="Контур_6725" data-name="Контур 6725" d="M129.972,443.246a.417.417,0,1,0,0,.834h7.085a.417.417,0,1,0,0-.834Z" transform="translate(-122.35 -408.27)" fill="#fff"/>
      <path id="Контур_6726" data-name="Контур 6726" d="M239.655,117.691h1.072a.417.417,0,0,0,0-.834h-1.072a.417.417,0,0,0,0,.834Z" transform="translate(-225.932 -100.033)" fill="#fff"/>
      <path id="Контур_6727" data-name="Контур 6727" d="M84.12,250.037a.635.635,0,0,0,.665-.054l1.316-.962,1.316.962a.65.65,0,0,0,1.014-.515v-3.737h1.226a.417.417,0,0,0,0-.834H82.762a.417.417,0,1,0,0,.834h1.009v3.737A.635.635,0,0,0,84.12,250.037Zm3.477-.955-1.25-.914a.417.417,0,0,0-.492,0l-1.25.914v-3.35H87.6v3.35Z" transform="translate(-77.765 -220.953)" fill="#fff"/>
    </g>
  </g>
</svg>
