<svg xmlns="http://www.w3.org/2000/svg" width="62" height="63" viewBox="0 0 62 63">
  <g id="Сгруппировать_4926" data-name="Сгруппировать 4926" transform="translate(-852 -2313)">
    <ellipse id="Эллипс_63" data-name="Эллипс 63" cx="31" cy="31.5" rx="31" ry="31.5" transform="translate(852 2313)" fill="#f2ad30"/>
    <path id="flights" d="M4.547,16.627a.667.667,0,0,0-.327.874l1.5,3.221a.666.666,0,0,0,.88.327l11.335-5.294L16.908,26.489a.667.667,0,0,0,.22.56,2.91,2.91,0,0,0,1.761.667,2.144,2.144,0,0,0,.527-.066,3.388,3.388,0,0,0,2.12-2.461L26,11.98l8.834-4.121c2.6-1.213,3.941-3.674,3.041-5.594A3.376,3.376,0,0,0,35.264.445a6.18,6.18,0,0,0-3.64.56L21.429,5.786,10.468,1.5a3.383,3.383,0,0,0-3.24.047A2.719,2.719,0,0,0,6.233,3.7a.667.667,0,0,0,.287.527L13.9,9.3l-4.227,2L2.586,9.5a.667.667,0,0,0-.74.32L.079,13a.667.667,0,0,0,.347.94l5.247,2.167ZM7.6,3.366a1.141,1.141,0,0,1,.4-.72c.38-.274,1.074-.233,2,.113l9.761,3.807-4.454,2.08Zm-6,9.628,1.16-2.06,6.821,1.693a.668.668,0,0,0,.44-.04L32.191,2.232a4.873,4.873,0,0,1,2.847-.454,2.088,2.088,0,0,1,1.627,1.053c.56,1.2-.54,2.954-2.4,3.821l-7.681,3.6.467-1.381a.678.678,0,1,0-1.287-.427L20.275,24.775c-.327.927-.734,1.481-1.187,1.6a1.128,1.128,0,0,1-.813-.153l1.334-14a.67.67,0,0,0-1.334-.127l-.207,2.14L6.627,19.568l-.94-2,1.88-.88a.667.667,0,0,0,0-1.22Zm0,0" transform="translate(863.001 2333.624)" fill="#fff"/>
  </g>
</svg>
