<svg xmlns="http://www.w3.org/2000/svg" width="62" height="63" viewBox="0 0 62 63">
  <g id="Сгруппировать_4928" data-name="Сгруппировать 4928" transform="translate(-1277 -2360)">
    <path id="Контур_6728" data-name="Контур 6728" d="M31,0A30.973,30.973,0,0,1,57.116,14.522,31.5,31.5,0,0,1,62,31.5C62,48.9,48.121,63,31,63S0,48.9,0,31.5,13.879,0,31,0Z" transform="translate(1277 2360)" fill="#2139bb"/>
    <g id="negotiating" transform="translate(1294.078 2379.5)">
      <path id="Контур_6729" data-name="Контур 6729" d="M246.53,100a.53.53,0,1,0,.53.53A.53.53,0,0,0,246.53,100Zm0,0" transform="translate(-232.97 -94.704)" fill="#fff"/>
      <path id="Контур_6730" data-name="Контур 6730" d="M80.53,261.059a.53.53,0,1,0-.53-.53A.53.53,0,0,0,80.53,261.059Zm0,0" transform="translate(-75.763 -246.229)" fill="#fff"/>
      <path id="Контур_6731" data-name="Контур 6731" d="M17.8,0C13.029,0,9.115,3.287,8.812,7.429,4.271,7.656,0,10.931,0,15.36a7.4,7.4,0,0,0,2.066,5.065,3.221,3.221,0,0,1-.851,3.035.53.53,0,0,0,.374.9,5.843,5.843,0,0,0,4.048-1.636,12.07,12.07,0,0,0,3.685.577c4.768,0,8.681-3.287,8.985-7.427a11.91,11.91,0,0,0,3.175-.565,5.843,5.843,0,0,0,4.048,1.636.53.53,0,0,0,.374-.9,3.221,3.221,0,0,1-.851-3.035,7.4,7.4,0,0,0,2.066-5.065C27.119,3.343,22.52,0,17.8,0ZM9.322,22.246a10.707,10.707,0,0,1-3.629-.625.53.53,0,0,0-.587.134,4.779,4.779,0,0,1-2.377,1.411,4.284,4.284,0,0,0,.323-3.153.529.529,0,0,0-.13-.224A6.365,6.365,0,0,1,1.059,15.36c0-3.733,3.784-6.886,8.263-6.886,4.23,0,7.945,2.941,7.945,6.886,0,3.8-3.564,6.886-7.945,6.886ZM24.2,12.374a.531.531,0,0,0-.13.224,4.284,4.284,0,0,0,.323,3.153,4.778,4.778,0,0,1-2.377-1.411.53.53,0,0,0-.587-.134,10.434,10.434,0,0,1-3.121.612,7.582,7.582,0,0,0-2.862-5.284h6.909a.53.53,0,0,0,0-1.059H13.816A9.879,9.879,0,0,0,9.874,7.431c.3-3.558,3.742-6.372,7.923-6.372,4.479,0,8.263,3.153,8.263,6.886A6.365,6.365,0,0,1,24.2,12.374Zm0,0" fill="#fff"/>
      <path id="Контур_6732" data-name="Контур 6732" d="M127.2,260H120.53a.53.53,0,1,0,0,1.059H127.2a.53.53,0,1,0,0-1.059Zm0,0" transform="translate(-113.644 -246.229)" fill="#fff"/>
      <path id="Контур_6733" data-name="Контур 6733" d="M89.322,320H80.53a.53.53,0,1,0,0,1.059h8.793a.53.53,0,1,0,0-1.059Zm0,0" transform="translate(-75.763 -303.051)" fill="#fff"/>
      <path id="Контур_6734" data-name="Контур 6734" d="M293.2,100H286.53a.53.53,0,0,0,0,1.059H293.2a.53.53,0,0,0,0-1.059Zm0,0" transform="translate(-270.851 -94.704)" fill="#fff"/>
    </g>
  </g>
</svg>
